{"glyphs":{"0":{"ha":678,"x_min":0,"x_max":543,"o":"m 543 271 q 463 79 543 159 q 271 0 384 0 q 79 79 159 0 q 0 271 0 159 l 0 678 q 79 870 0 791 q 271 949 159 949 q 463 870 384 949 q 543 678 543 791 l 543 271 m 407 678 q 404 705 407 692 l 176 174 q 271 136 215 136 q 367 175 328 136 q 407 271 407 215 l 407 678 m 271 814 q 175 774 215 814 q 136 678 136 734 l 136 271 q 138 243 136 257 l 366 774 q 271 814 327 814 z "},"1":{"ha":375,"x_min":0,"x_max":239,"o":"m 239 949 l 239 0 l 104 0 l 104 746 l 102 746 q 30 776 60 746 q 0 848 0 806 q 30 920 0 890 q 102 949 60 949 l 239 949 z "},"2":{"ha":678,"x_min":0,"x_max":543,"o":"m 271 814 q 175 774 215 814 q 136 678 136 734 l 0 678 q 79 870 0 791 q 271 949 159 949 q 463 870 384 949 q 543 678 543 791 q 463 486 543 566 q 271 407 384 407 q 175 367 215 407 q 136 271 136 328 l 136 136 l 543 136 l 543 0 l 0 0 l 0 271 q 79 463 0 384 q 271 543 159 543 q 367 582 328 543 q 407 678 407 622 q 367 774 407 734 q 271 814 328 814 z "},"3":{"ha":678,"x_min":0,"x_max":543,"o":"m 271 1 q 79 80 159 1 q 0 272 0 159 l 136 272 q 175 176 136 216 q 271 136 215 136 l 271 136 q 367 175 328 136 q 407 271 407 215 q 367 367 407 328 q 271 407 328 407 l 203 407 l 203 543 l 271 543 q 367 582 328 543 q 407 678 407 622 q 367 774 407 734 q 271 814 328 814 q 175 774 215 814 q 136 678 136 734 l 0 678 q 79 870 0 791 q 271 949 159 949 q 463 870 384 949 q 543 678 543 791 q 463 486 543 566 q 451 475 457 480 q 463 463 457 469 q 543 271 543 384 q 463 79 543 159 q 271 0 384 0 l 271 1 z "},"4":{"ha":678,"x_min":0,"x_max":543,"o":"m 407 373 l 407 442 q 271 407 347 407 q 79 486 159 407 q 0 678 0 566 l 0 949 l 136 949 l 136 678 q 175 582 136 622 q 271 543 215 543 q 367 582 328 543 q 407 672 405 620 l 407 949 l 543 949 l 543 0 l 407 0 l 407 373 z "},"5":{"ha":678,"x_min":-1,"x_max":543,"o":"m 407 407 q 367 503 407 463 q 271 543 328 543 l 0 543 l 0 949 l 543 949 l 543 814 l 136 814 l 136 678 l 271 678 q 463 599 384 678 q 543 407 543 519 l 543 271 l 542 271 q 463 80 541 159 q 271 1 383 1 l 271 1 q 79 81 158 1 q -1 273 -1 160 l 135 273 q 175 177 135 216 q 271 137 214 137 l 271 136 q 367 176 327 136 q 406 272 406 216 l 407 272 l 407 407 z "},"6":{"ha":678,"x_min":0,"x_max":543,"o":"m 406 678 q 367 774 406 734 q 271 814 327 814 q 175 774 214 813 q 136 678 136 734 l 136 543 l 271 543 q 463 463 384 543 q 543 271 543 384 q 463 79 543 159 q 271 0 384 0 q 79 79 159 0 q 0 271 0 159 l 0 678 q 79 870 0 791 q 271 949 158 949 q 463 870 383 949 q 542 678 542 791 l 406 678 m 136 271 q 175 175 136 215 q 271 136 215 136 q 367 175 328 136 q 407 271 407 215 q 367 367 407 328 q 271 407 328 407 l 136 407 l 136 271 z "},"7":{"ha":678,"x_min":0,"x_max":543,"o":"m 543 949 l 271 0 l 136 0 l 349 814 l 0 814 l 0 949 l 543 949 z "},"8":{"ha":678,"x_min":0,"x_max":543,"o":"m 463 463 q 543 271 543 384 q 463 79 543 159 q 271 0 384 0 q 79 79 159 0 q 0 271 0 159 q 79 463 0 384 q 109 489 93 477 q 32 678 32 568 q 111 870 32 791 q 273 948 169 928 q 435 870 378 927 q 515 678 515 791 q 436 487 515 566 q 463 463 450 476 m 136 271 q 175 175 136 215 q 271 136 215 136 q 367 175 328 136 q 407 271 407 215 q 367 367 407 328 q 271 407 328 407 q 175 367 215 407 q 136 271 136 328 m 168 678 q 207 582 168 622 q 273 545 236 553 q 339 582 311 553 q 379 678 379 622 q 339 774 379 734 q 273 810 311 803 q 207 774 236 803 q 168 678 168 734 z "},"9":{"ha":678,"x_min":0,"x_max":543,"o":"m 136 271 q 176 175 136 215 q 272 136 216 136 q 368 176 328 136 q 407 271 407 215 l 407 407 l 271 407 q 79 486 159 407 q 0 678 0 566 q 79 870 0 791 q 271 949 159 949 q 463 870 384 949 q 543 678 543 791 l 543 271 q 463 79 543 159 q 272 0 385 1 q 80 79 159 0 q 1 271 1 159 l 136 271 m 407 678 q 367 774 407 734 q 271 814 328 814 q 175 774 215 814 q 136 678 136 734 q 175 582 136 622 q 271 543 215 543 l 407 543 l 407 678 z "},"\"":{"ha":543,"x_min":0,"x_max":407,"o":"m 136 949 l 136 678 l 0 678 l 0 949 l 136 949 m 407 949 l 407 678 l 271 678 l 271 949 l 407 949 z "},"#":{"ha":678,"x_min":0,"x_max":543,"o":"m 475 949 l 475 746 l 543 746 l 543 610 l 475 610 l 475 339 l 543 339 l 543 203 l 475 203 l 475 0 l 339 0 l 339 203 l 203 203 l 203 0 l 68 0 l 68 203 l 0 203 l 0 339 l 68 339 l 68 610 l 0 610 l 0 746 l 68 746 l 68 949 l 203 949 l 203 746 l 339 746 l 339 949 l 475 949 m 203 339 l 339 339 l 339 610 l 203 610 l 203 339 z "},"$":{"ha":679,"x_min":0,"x_max":543,"o":"m 303 1085 l 303 947 q 463 870 395 938 q 543 678 543 791 l 407 678 q 367 774 407 734 q 303 810 339 802 l 303 541 q 464 463 395 531 q 543 271 543 384 l 543 271 q 463 79 543 159 q 303 1 395 12 l 303 -136 l 235 -136 l 235 2 q 79 79 146 13 q 0 271 0 159 l 136 271 q 175 175 136 215 q 235 140 201 149 l 235 409 q 80 486 146 420 q 1 678 1 566 l 0 678 q 79 870 0 791 q 235 947 146 937 l 235 1085 l 303 1085 m 367 175 q 407 271 407 215 l 408 271 q 368 367 408 328 q 303 404 340 395 l 303 139 q 367 175 339 147 m 175 774 q 136 678 136 734 l 136 678 q 176 582 136 622 q 235 547 202 556 l 235 809 q 175 774 201 800 z "},"%":{"ha":678,"x_min":0,"x_max":543,"o":"m 543 949 l 136 0 l 0 0 l 407 949 l 543 949 m 203 848 q 174 776 203 806 q 102 746 144 746 q 30 776 60 746 q 0 848 0 806 q 30 920 0 890 q 102 949 60 949 q 174 920 144 949 q 203 848 203 890 m 339 102 q 369 174 339 144 q 441 203 399 203 q 513 174 483 203 q 543 102 543 144 q 513 30 543 60 q 441 0 483 0 q 369 30 399 0 q 339 102 339 60 z "},"&":{"ha":746,"x_min":0,"x_max":610,"o":"m 610 543 l 610 407 l 271 407 q 175 367 215 407 q 136 271 136 328 q 175 175 136 215 q 271 136 215 136 q 367 175 328 136 q 407 271 407 215 l 543 271 q 507 136 543 196 l 610 136 l 610 0 l 277 0 l 271 0 q 79 79 159 0 q 0 271 0 159 q 79 463 0 384 q 109 489 93 477 q 32 678 32 568 q 111 870 32 791 q 273 948 169 928 q 435 870 378 927 q 515 678 515 791 q 479 543 515 603 l 610 543 m 168 678 q 207 582 168 622 q 273 545 236 553 q 339 582 311 553 q 379 678 379 622 q 339 774 379 734 q 273 810 311 803 q 207 774 236 803 q 168 678 168 734 z "},"'":{"ha":271,"x_min":0,"x_max":136,"o":"m 136 949 l 136 678 l 0 678 l 0 949 l 136 949 z "},"(":{"ha":475,"x_min":0,"x_max":339,"o":"m 339 -68 l 339 -203 l 271 -203 q 79 -124 159 -203 q 0 68 0 -45 l 0 881 q 79 1073 0 994 q 271 1152 159 1152 l 339 1152 l 339 1017 l 271 1017 q 175 977 215 1017 q 136 881 136 937 l 136 68 q 175 -28 136 12 q 271 -68 215 -68 l 339 -68 z "},")":{"ha":475,"x_min":0,"x_max":339,"o":"m 68 -68 q 164 -28 124 -68 q 203 68 203 12 l 203 881 q 164 977 203 937 q 68 1017 124 1017 l 0 1017 l 0 1152 l 68 1152 q 260 1073 180 1152 q 339 881 339 994 l 339 68 q 260 -124 339 -45 q 68 -203 180 -203 l 0 -203 l 0 -68 l 68 -68 z "},"*":{"ha":678,"x_min":0,"x_max":543,"o":"m 466 274 l 348 206 l 271 338 l 195 206 l 77 274 l 153 407 l 0 407 l 0 543 l 153 543 l 77 675 l 195 743 l 271 610 l 348 743 l 466 675 l 389 543 l 543 543 l 543 407 l 389 407 l 466 274 z "},"+":{"ha":678,"x_min":0,"x_max":543,"o":"m 339 543 l 543 543 l 543 407 l 339 407 l 339 203 l 203 203 l 203 407 l 0 407 l 0 543 l 203 543 l 203 746 l 339 746 l 339 543 z "},",":{"ha":448,"x_min":0,"x_max":313,"o":"m 160 321 q 174 309 168 315 q 181 301 178 305 q 136 -136 313 160 q 136 136 203 68 l 132 140 q 102 136 117 136 q 30 165 60 136 q 0 237 0 195 q 30 309 0 279 q 102 339 60 339 q 134 334 119 339 l 136 339 q 160 321 149 330 z "},"-":{"ha":678,"x_min":0,"x_max":543,"o":"m 543 543 l 543 407 l 0 407 l 0 543 l 543 543 z "},".":{"ha":339,"x_min":0,"x_max":203,"o":"m 102 0 q 30 30 60 0 q 0 102 0 60 q 30 174 0 144 q 102 203 60 203 q 174 174 144 203 q 203 102 203 144 q 174 30 203 60 q 102 0 144 0 z "},"/":{"ha":678,"x_min":0,"x_max":543,"o":"m 543 949 l 136 0 l 0 0 l 407 949 l 543 949 z "},":":{"ha":339,"x_min":0,"x_max":203,"o":"m 102 136 q 30 165 60 136 q 0 237 0 195 q 30 309 0 279 q 102 339 60 339 q 174 309 144 339 q 203 237 203 279 q 174 165 203 195 q 102 136 144 136 m 203 712 q 174 640 203 670 q 102 610 144 610 q 30 640 60 610 q 0 712 0 670 q 30 784 0 754 q 102 814 60 814 q 174 784 144 814 q 203 712 203 754 z "},";":{"ha":448,"x_min":0,"x_max":313,"o":"m 160 321 q 174 309 168 315 q 181 301 178 305 q 136 -136 313 160 q 136 136 203 68 l 132 140 q 102 136 117 136 q 30 165 60 136 q 0 237 0 195 q 30 309 0 279 q 102 339 60 339 q 134 334 119 339 l 136 339 q 160 321 149 330 m 102 610 q 30 640 60 610 q 0 712 0 670 q 30 784 0 754 q 102 814 60 814 q 174 784 144 814 q 203 712 203 754 q 174 640 203 670 q 102 610 144 610 z "},"<":{"ha":678,"x_min":0,"x_max":543,"o":"m 543 203 l 0 475 l 543 746 l 543 610 l 271 475 l 543 339 l 543 203 z "},"=":{"ha":678,"x_min":0,"x_max":543,"o":"m 543 407 l 543 271 l 0 271 l 0 407 l 543 407 m 0 543 l 0 678 l 543 678 l 543 543 l 0 543 z "},">":{"ha":678,"x_min":0,"x_max":543,"o":"m 0 339 l 271 475 l 0 610 l 0 746 l 543 475 l 0 203 l 0 339 z "},"?":{"ha":678,"x_min":0,"x_max":543,"o":"m 373 102 q 343 30 373 60 q 271 0 313 0 q 199 30 229 0 q 170 102 170 60 q 199 174 170 144 q 271 203 229 203 q 343 174 313 203 q 373 102 373 144 m 271 814 q 175 774 215 814 q 136 678 136 734 l 0 678 q 79 870 0 791 q 271 949 159 949 q 463 870 384 949 q 543 678 543 791 q 463 486 543 566 q 339 415 409 432 l 339 339 l 203 339 l 203 543 l 271 543 q 367 582 328 543 q 407 678 407 622 q 367 774 407 734 q 271 814 328 814 z "},"@":{"ha":1221,"x_min":0,"x_max":1085,"o":"m 1085 0 l 678 0 l 678 35 q 543 0 618 0 l 543 1 q 351 80 430 1 q 271 271 271 159 l 271 407 q 351 599 271 519 q 543 678 430 678 l 543 677 q 678 642 618 677 l 678 678 l 814 678 l 814 136 l 949 136 l 949 678 q 910 774 949 734 q 814 814 870 814 l 271 814 q 175 774 215 814 q 136 678 136 734 l 136 0 q 175 -96 136 -56 q 271 -136 215 -136 l 949 -136 l 949 -271 l 271 -271 q 79 -192 159 -271 q 0 0 0 -113 l 0 678 q 79 870 0 791 q 271 949 159 949 l 814 949 q 1006 870 926 949 q 1085 678 1085 791 l 1085 0 m 678 270 l 678 408 q 639 503 677 463 q 543 542 599 542 l 543 543 q 447 503 486 543 q 407 407 407 463 l 407 272 q 447 176 407 216 q 543 136 486 136 l 543 136 q 639 176 599 136 q 678 270 677 214 z "},"A":{"ha":678,"x_min":0,"x_max":543,"o":"m 407 407 l 136 407 l 136 1 l 0 1 l 0 678 q 79 870 0 791 q 271 949 159 949 q 463 870 384 949 q 543 678 543 791 l 543 0 l 407 0 l 407 407 m 407 678 q 367 774 407 734 q 271 814 328 814 q 175 774 215 814 q 136 678 136 734 l 136 543 l 407 543 l 407 678 z "},"B":{"ha":678,"x_min":0,"x_max":543,"o":"m 0 949 l 203 949 q 395 870 316 949 q 475 678 475 791 q 412 504 475 578 q 463 463 439 488 q 543 271 543 384 q 463 79 543 159 q 271 0 384 0 l 0 0 l 0 949 m 271 407 l 209 407 l 203 407 l 136 407 l 136 136 l 271 136 q 367 175 328 136 q 407 271 407 215 q 367 367 407 328 q 271 407 328 407 m 203 814 l 136 814 l 136 543 l 203 543 q 299 582 260 543 q 339 678 339 622 q 299 774 339 734 q 203 814 260 814 z "},"C":{"ha":678,"x_min":0,"x_max":543,"o":"m 271 136 q 367 175 328 136 q 407 271 407 215 l 543 271 q 463 79 543 159 q 271 0 384 0 q 79 79 159 0 q 0 271 0 159 l 0 678 q 79 870 0 791 q 271 949 159 949 q 463 870 384 949 q 543 678 543 791 l 407 678 q 367 774 407 734 q 271 814 328 814 q 175 774 215 814 q 136 678 136 734 l 136 271 q 175 175 136 215 q 271 136 215 136 z "},"D":{"ha":678,"x_min":0,"x_max":543,"o":"m 543 271 q 463 79 543 159 q 271 0 384 0 l 0 0 l 0 949 l 271 949 q 463 870 384 949 q 543 678 543 791 l 543 271 m 271 136 q 367 175 328 136 q 407 271 407 215 l 407 678 q 367 774 407 734 q 271 814 328 814 l 136 814 l 136 136 l 271 136 z "},"E":{"ha":678,"x_min":0,"x_max":543,"o":"m 543 949 l 543 814 l 136 814 l 136 543 l 406 543 l 406 407 l 136 407 l 136 136 l 543 136 l 543 0 l 0 0 l 0 949 l 543 949 z "},"F":{"ha":678,"x_min":0,"x_max":543,"o":"m 543 949 l 543 814 l 136 814 l 136 543 l 407 543 l 407 407 l 136 407 l 136 0 l 0 0 l 0 949 l 543 949 z "},"G":{"ha":678,"x_min":0,"x_max":543,"o":"m 543 407 l 543 271 q 463 79 543 159 q 271 0 384 0 q 79 79 159 0 q 0 271 0 159 l 0 678 q 79 870 0 791 q 271 949 159 949 q 463 870 384 949 q 543 678 543 791 l 407 678 q 367 774 407 734 q 271 814 328 814 q 175 774 215 814 q 136 678 136 734 l 136 271 q 175 175 136 215 q 271 136 215 136 q 367 175 328 136 q 407 271 407 215 l 271 271 l 271 407 l 543 407 z "},"H":{"ha":678,"x_min":0,"x_max":543,"o":"m 543 949 l 543 0 l 407 0 l 407 407 l 136 407 l 136 0 l 0 0 l 0 949 l 136 949 l 136 543 l 407 543 l 407 949 l 543 949 z "},"I":{"ha":271,"x_min":0,"x_max":136,"o":"m 136 949 l 136 0 l 0 0 l 0 949 l 136 949 z "},"J":{"ha":678,"x_min":0,"x_max":543,"o":"m 407 271 l 407 949 l 543 949 l 543 271 q 463 79 543 159 q 271 0 384 0 q 79 79 159 0 q 0 271 0 159 l 136 271 q 175 175 136 215 q 271 136 215 136 q 367 175 328 136 q 407 271 406 214 z "},"K":{"ha":678,"x_min":0,"x_max":543,"o":"m 136 475 l 339 950 l 475 950 l 271 475 l 543 0 l 407 0 l 136 475 l 136 0 l 0 0 l 0 949 l 136 949 l 136 475 z "},"L":{"ha":678,"x_min":0,"x_max":543,"o":"m 543 136 l 543 0 l 0 0 l 0 949 l 136 949 l 136 136 l 543 136 z "},"M":{"ha":678,"x_min":0,"x_max":543,"o":"m 543 949 l 543 0 l 407 0 l 407 633 l 271 317 l 136 633 l 136 0 l 0 0 l 0 949 l 136 949 l 271 633 l 407 949 l 543 949 z "},"N":{"ha":678,"x_min":0,"x_max":543,"o":"m 136 633 l 136 0 l 0 0 l 0 949 l 136 949 l 407 317 l 407 949 l 543 949 l 543 0 l 407 0 l 136 633 z "},"O":{"ha":678,"x_min":0,"x_max":543,"o":"m 543 271 q 463 79 543 159 q 271 0 384 0 q 79 79 159 0 q 0 271 0 159 l 0 678 q 79 870 0 791 q 271 949 159 949 q 463 870 384 949 q 543 678 543 791 l 543 271 m 407 678 q 367 774 407 734 q 271 814 328 814 q 175 774 215 814 q 136 678 136 734 l 136 271 q 175 175 136 215 q 271 136 215 136 q 367 175 328 136 q 407 271 407 215 l 407 678 z "},"P":{"ha":678,"x_min":0,"x_max":543,"o":"m 136 949 l 271 949 q 463 870 384 949 q 543 678 543 791 q 463 486 543 566 q 271 407 384 407 l 136 407 l 136 0 l 0 0 l 0 949 l 136 949 m 407 678 q 367 774 407 734 q 271 814 328 814 l 136 814 l 136 543 l 271 543 q 367 582 328 543 q 407 678 407 622 z "},"Q":{"ha":678,"x_min":0,"x_max":543,"o":"m 543 271 q 503 129 543 192 q 532 104 521 121 q 543 68 543 88 q 523 20 543 39 q 475 0 503 0 q 438 11 454 0 q 413 39 421 22 q 271 0 351 0 q 79 79 159 0 q 0 271 0 159 l 0 678 q 79 870 0 791 q 271 949 159 949 q 463 870 384 949 q 543 678 543 791 l 543 271 m 407 678 q 367 774 407 734 q 271 814 328 814 q 175 774 215 814 q 136 678 136 734 l 136 271 q 175 175 136 215 q 271 136 215 136 q 367 175 328 136 q 407 271 407 215 l 407 678 z "},"R":{"ha":678,"x_min":0,"x_max":543,"o":"m 136 949 l 271 949 q 463 870 384 949 q 543 678 543 791 q 463 486 543 566 q 381 429 426 449 l 543 0 l 407 0 l 254 407 l 136 407 l 136 0 l 0 0 l 0 949 l 136 949 m 407 678 q 367 774 407 734 q 271 814 328 814 l 136 814 l 136 543 l 271 543 q 367 582 328 543 q 407 678 407 622 z "},"S":{"ha":679,"x_min":0,"x_max":543,"o":"m 271 0 q 79 79 159 0 q 0 271 0 159 l 136 271 q 175 175 136 215 q 271 136 215 136 q 367 175 328 136 q 407 271 407 215 l 408 271 q 368 367 408 328 q 272 407 328 407 q 80 486 159 407 q 1 678 1 566 l 0 678 q 79 870 0 791 q 271 949 159 949 q 463 870 384 949 q 543 678 543 791 l 407 678 q 367 774 407 734 q 271 814 328 814 q 175 774 215 814 q 136 678 136 734 l 136 678 q 176 582 136 622 q 272 543 216 543 q 464 463 385 543 q 543 271 543 384 l 543 271 q 463 79 543 159 q 271 0 384 0 z "},"T":{"ha":678,"x_min":0,"x_max":543,"o":"m 543 949 l 543 814 l 339 814 l 339 0 l 203 0 l 203 814 l 0 814 l 0 949 l 543 949 z "},"U":{"ha":679,"x_min":0,"x_max":543,"o":"m 1 271 l 0 949 l 136 949 l 136 271 l 136 271 q 175 175 136 215 q 271 136 215 136 q 367 175 328 136 q 407 271 407 215 l 408 271 l 407 949 l 543 949 l 543 271 l 543 271 q 463 79 543 159 q 271 0 384 0 q 79 79 159 0 q 0 271 0 159 l 1 271 z "},"V":{"ha":678,"x_min":0,"x_max":543,"o":"m 136 949 l 271 316 l 407 949 l 543 949 l 339 0 l 203 0 l 0 949 l 136 949 z "},"W":{"ha":1084,"x_min":0,"x_max":949,"o":"m 136 949 l 271 316 l 407 949 l 543 949 l 677 318 l 813 949 l 949 949 l 745 1 l 746 0 l 610 0 l 610 1 l 475 633 l 339 0 l 203 0 l 0 949 l 136 949 z "},"X":{"ha":678,"x_min":0,"x_max":543,"o":"m 136 949 l 271 633 l 407 949 l 543 949 l 339 475 l 543 0 l 407 0 l 271 316 l 136 0 l 0 0 l 203 475 l 0 949 l 136 949 z "},"Y":{"ha":678,"x_min":0,"x_max":543,"o":"m 203 475 l 0 949 l 136 949 l 271 633 l 407 949 l 543 949 l 339 475 l 339 0 l 203 0 l 203 475 z "},"Z":{"ha":678,"x_min":0,"x_max":543,"o":"m 543 136 l 543 0 l 0 0 l 349 814 l 0 814 l 0 949 l 543 949 l 193 136 l 543 136 z "},"[":{"ha":407,"x_min":0,"x_max":271,"o":"m 271 -68 l 271 -203 l 0 -203 l 0 -68 l 0 1153 l 271 1153 l 271 1017 l 136 1017 l 136 -68 l 271 -68 z "},"\\":{"ha":678,"x_min":0,"x_max":543,"o":"m 136 949 l 543 0 l 407 0 l 0 949 l 136 949 z "},"]":{"ha":407,"x_min":0,"x_max":271,"o":"m 271 1153 l 271 -203 l 0 -203 l 0 -68 l 136 -68 l 136 1017 l 0 1017 l 0 1153 l 271 1153 z "},"^":{"ha":678,"x_min":0,"x_max":543,"o":"m 0 407 l 271 949 l 543 407 l 407 407 l 271 678 l 136 407 l 0 407 z "},"_":{"ha":678,"x_min":0,"x_max":543,"o":"m 543 136 l 543 0 l 0 0 l 0 136 l 543 136 z "},"`":{"ha":407,"x_min":0,"x_max":271,"o":"m 136 949 l 271 678 l 136 678 l 0 949 l 136 949 z "},"a":{"ha":678,"x_min":0,"x_max":543,"o":"m 407 270 l 407 408 q 368 503 406 463 q 271 542 328 542 l 271 543 q 175 503 215 543 q 136 407 136 463 l 136 272 q 175 176 136 216 q 271 136 215 136 l 271 136 q 368 176 328 136 q 407 270 406 214 m 543 0 l 407 0 l 407 35 q 271 0 347 0 l 271 1 q 79 80 159 1 q 0 271 0 159 l 0 407 q 79 599 0 519 q 271 678 159 678 l 271 677 q 407 642 347 677 l 407 678 l 543 678 l 543 0 z "},"b":{"ha":678,"x_min":0,"x_max":543,"o":"m 136 949 l 136 678 l 271 678 q 463 599 384 678 q 543 407 543 519 l 543 271 q 463 80 542 159 q 271 1 384 1 l 271 0 l 0 0 l 0 949 l 136 949 m 407 407 q 367 503 407 463 q 271 543 328 543 l 136 543 l 136 136 l 271 136 l 271 136 q 367 176 328 136 q 407 272 407 216 l 407 407 z "},"c":{"ha":678,"x_min":0,"x_max":543,"o":"m 0 407 q 79 599 0 519 q 271 678 159 678 q 463 599 384 678 q 543 407 543 519 l 407 407 q 367 503 407 463 q 271 543 328 543 q 175 503 215 543 q 136 407 136 463 l 136 272 q 175 176 136 216 q 271 136 215 136 l 271 136 q 367 175 328 136 q 407 271 407 215 l 543 271 q 463 79 543 159 q 271 0 384 0 l 271 1 q 79 80 159 1 q 0 271 0 159 l 0 407 l 0 407 z "},"d":{"ha":678,"x_min":0,"x_max":543,"o":"m 0 407 q 79 599 0 519 q 271 678 159 678 l 407 678 l 407 949 l 543 949 l 543 0 l 271 0 l 271 1 q 79 80 159 1 q 0 272 0 159 l 0 407 m 407 136 l 407 543 l 271 543 q 175 503 215 543 q 136 407 136 463 l 136 272 q 175 176 136 216 q 271 136 215 136 l 271 136 l 407 136 z "},"e":{"ha":678,"x_min":0,"x_max":543,"o":"m 271 136 l 475 136 l 475 0 l 271 0 l 271 1 q 79 80 159 1 q 0 271 0 159 l 0 407 q 79 599 0 519 q 271 678 159 678 q 463 599 384 678 q 543 407 543 519 l 543 271 l 136 271 q 176 176 136 216 q 271 136 215 136 l 271 136 m 136 407 l 407 407 q 367 503 407 463 q 271 543 328 543 q 175 503 215 543 q 136 407 136 463 z "},"f":{"ha":543,"x_min":0,"x_max":407,"o":"m 68 678 q 147 870 68 791 q 339 949 227 949 l 407 949 l 407 814 l 339 814 q 243 774 283 814 q 203 678 203 734 l 339 678 l 339 543 l 203 543 l 203 0 l 68 0 l 68 543 l 0 543 l 0 678 l 68 678 z "},"g":{"ha":679,"x_min":0,"x_max":543,"o":"m 0 406 q 79 598 0 519 q 271 677 159 677 l 271 678 q 407 642 347 678 l 407 678 l 543 678 l 543 407 l 543 407 l 543 271 l 543 271 l 543 0 q 463 -192 543 -113 q 271 -271 384 -271 l 68 -271 l 68 -136 l 271 -136 q 367 -96 328 -136 q 407 0 407 -56 l 407 36 q 271 1 347 1 l 271 0 q 79 79 159 0 q 0 271 0 159 l 1 271 l 1 406 l 0 406 m 136 407 l 136 271 l 136 271 q 175 175 136 215 q 271 136 215 136 l 271 136 q 367 176 328 136 q 407 266 405 214 l 407 412 q 367 503 405 465 q 271 543 328 543 l 271 542 q 175 502 215 542 q 136 407 136 463 l 136 407 z "},"h":{"ha":678,"x_min":0,"x_max":543,"o":"m 543 406 l 543 0 l 407 0 l 407 406 q 367 503 407 463 q 271 543 328 543 q 175 503 215 543 q 136 407 136 463 l 136 0 l 0 0 l 0 949 l 136 949 l 136 642 q 271 678 196 678 q 463 599 384 678 q 543 406 543 519 z "},"i":{"ha":271,"x_min":0,"x_max":136,"o":"m 136 678 l 136 0 l 0 0 l 0 678 l 136 678 m 136 949 l 136 814 l 0 814 l 0 949 l 136 949 z "},"j":{"ha":407,"x_min":0,"x_max":271,"o":"m 271 949 l 271 814 l 136 814 l 136 949 l 271 949 m 271 678 l 271 0 l 136 0 l 136 678 l 271 678 m 271 0 q 192 -192 271 -113 q 0 -271 113 -271 l 0 -136 q 96 -96 56 -136 q 136 0 136 -56 l 271 0 z "},"k":{"ha":678,"x_min":0,"x_max":543,"o":"m 136 339 l 339 678 l 475 678 l 271 339 l 543 0 l 407 0 l 136 339 l 136 0 l 0 0 l 0 949 l 136 949 l 136 339 z "},"l":{"ha":543,"x_min":0,"x_max":407,"o":"m 407 136 l 407 0 l 0 0 l 0 136 l 136 136 l 136 814 l 0 814 l 0 949 l 271 949 l 271 136 l 407 136 z "},"m":{"ha":1085,"x_min":0,"x_max":949,"o":"m 543 406 l 543 0 l 407 0 l 407 407 l 408 407 q 368 502 401 469 q 271 543 328 542 q 175 503 215 543 q 136 412 138 465 l 136 0 l 0 0 l 0 678 l 136 678 l 136 642 q 271 678 196 678 q 464 598 385 677 q 474 587 469 593 q 486 600 479 593 q 677 679 565 679 q 870 599 791 678 q 949 407 949 519 l 949 0 l 814 0 l 814 407 q 774 503 814 463 q 677 543 734 543 q 581 503 621 543 q 543 406 547 469 z "},"n":{"ha":678,"x_min":0,"x_max":543,"o":"m 543 407 l 543 1 l 407 1 l 407 407 q 367 503 407 463 q 271 543 328 543 q 175 503 215 543 q 136 407 136 463 l 136 0 l 0 0 l 0 678 l 136 678 l 136 643 q 271 678 196 678 q 463 599 384 678 q 543 407 543 519 z "},"o":{"ha":678,"x_min":0,"x_max":543,"o":"m 271 543 q 175 503 215 543 q 136 407 136 463 l 136 272 q 175 176 136 216 q 271 136 215 136 l 271 136 q 367 175 328 136 q 407 271 407 215 l 407 406 q 367 502 407 463 q 271 542 328 542 l 271 543 m 271 1 q 79 80 159 1 q 0 271 0 159 l 0 407 q 79 599 0 519 q 271 678 159 678 l 271 677 q 463 598 384 677 q 543 406 543 519 l 543 271 q 463 79 542 158 q 271 0 384 0 l 271 1 z "},"p":{"ha":678,"x_min":0,"x_max":543,"o":"m 0 678 l 136 678 l 136 642 q 271 678 196 678 l 271 677 q 463 598 384 677 q 543 406 543 519 l 543 271 q 463 79 542 158 q 271 0 384 0 l 271 1 q 136 36 196 1 l 136 -271 l 0 -271 l 0 678 m 271 543 q 175 503 215 543 q 136 407 136 463 l 136 272 q 175 176 136 216 q 271 136 215 136 l 271 136 q 367 175 328 136 q 407 271 407 215 l 407 406 q 367 502 407 463 q 271 542 328 542 l 271 543 z "},"q":{"ha":679,"x_min":0,"x_max":543,"o":"m 0 406 q 79 598 0 519 q 271 677 159 677 l 271 678 q 408 642 347 678 l 408 678 l 543 678 l 543 -271 l 408 -271 l 408 37 q 271 1 347 1 l 271 0 q 79 79 159 0 q 0 271 0 159 l 1 271 l 1 406 l 0 406 m 407 407 q 367 503 407 463 q 271 543 328 543 l 271 542 q 175 502 215 542 q 136 407 136 463 l 136 407 l 136 271 l 136 271 q 175 175 136 215 q 271 136 215 136 l 271 136 q 367 176 328 136 q 407 272 407 216 l 408 272 l 408 407 l 407 407 z "},"r":{"ha":475,"x_min":0,"x_max":339,"o":"m 136 678 l 136 642 q 271 678 196 678 l 339 678 l 339 543 l 271 543 q 175 503 215 543 q 136 407 136 463 l 136 0 l 0 0 l 0 678 l 136 678 z "},"s":{"ha":678,"x_min":0,"x_max":543,"o":"m 543 678 l 543 543 l 271 543 q 175 503 215 543 q 136 407 136 463 l 543 407 l 543 271 q 463 79 543 159 q 271 0 384 0 l 0 0 l 0 136 l 271 136 q 367 175 328 136 q 407 271 407 215 l 0 271 l 0 407 q 79 599 0 519 q 271 678 159 678 l 543 678 z "},"t":{"ha":543,"x_min":0,"x_max":407,"o":"m 407 136 l 407 0 l 339 0 q 147 79 227 0 q 68 271 68 159 l 68 543 l 0 543 l 0 678 l 68 678 l 68 949 l 203 949 l 203 678 l 339 678 l 339 543 l 203 543 l 203 271 q 243 175 203 215 q 339 136 283 136 l 407 136 z "},"u":{"ha":679,"x_min":0,"x_max":543,"o":"m 1 272 l 1 677 l 136 677 l 136 271 l 136 271 q 176 176 136 216 q 271 136 215 136 l 271 136 q 367 175 328 136 q 407 271 407 215 l 408 271 l 408 678 l 543 678 l 543 0 l 408 0 l 408 36 q 271 0 347 0 l 271 1 q 79 80 159 1 q 0 272 0 159 l 1 272 z "},"v":{"ha":678,"x_min":0,"x_max":543,"o":"m 136 678 l 271 226 l 407 678 l 543 678 l 339 0 l 203 0 l 0 678 l 136 678 z "},"w":{"ha":1085,"x_min":0,"x_max":949,"o":"m 678 136 q 774 176 734 136 q 814 271 813 215 l 814 678 l 949 678 l 949 271 q 870 80 949 159 q 678 1 791 1 l 678 1 q 486 81 566 1 q 475 92 480 86 q 463 79 469 85 q 271 0 384 0 l 271 1 q 79 80 159 1 q 0 272 0 159 l 1 272 l 1 677 l 136 677 l 136 271 l 136 271 q 176 176 136 216 q 271 136 215 136 l 271 136 q 367 175 328 136 q 407 267 406 214 l 407 273 l 408 273 l 408 678 l 543 678 l 543 272 l 543 272 l 543 271 l 543 267 q 583 177 545 214 q 678 137 622 137 l 678 136 z "},"x":{"ha":678,"x_min":0,"x_max":543,"o":"m 161 678 l 271 483 l 381 678 l 543 678 l 351 340 l 543 0 l 385 0 l 271 199 l 158 0 l 0 0 l 191 340 l 0 678 l 161 678 z "},"y":{"ha":679,"x_min":0,"x_max":543,"o":"m 271 -136 q 368 -96 328 -136 q 408 0 408 -56 l 407 0 l 407 36 q 272 1 347 1 l 272 0 q 80 79 159 0 q 1 271 1 159 l 0 678 l 136 678 l 136 271 q 176 175 136 215 q 272 136 216 136 l 272 136 q 368 176 328 136 q 407 258 402 210 l 407 678 l 543 678 l 543 407 l 543 407 l 543 271 q 543 252 543 261 l 543 0 l 543 0 q 464 -192 543 -113 q 271 -271 385 -271 l 68 -271 l 68 -136 l 271 -136 z "},"z":{"ha":678,"x_min":0,"x_max":543,"o":"m 543 136 l 543 0 l 0 0 l 304 543 l 0 543 l 0 678 l 543 678 l 235 136 l 543 136 z "},"{":{"ha":610,"x_min":0,"x_max":475,"o":"m 79 283 q 0 475 0 362 q 79 667 0 587 q 136 711 106 693 l 136 882 q 215 1074 136 994 q 407 1153 294 1153 l 475 1153 l 475 1017 l 407 1017 q 311 978 351 1017 q 271 882 271 938 l 271 610 q 175 571 215 610 q 136 475 136 531 q 175 379 136 418 q 271 339 215 339 l 271 68 q 311 -28 271 12 q 407 -68 351 -68 l 475 -68 l 475 -203 l 407 -203 q 215 -124 294 -203 q 136 68 136 -45 l 136 239 q 79 283 106 256 z "},"|":{"ha":271,"x_min":0,"x_max":136,"o":"m 136 1017 l 136 -68 l 0 -68 l 0 1017 l 136 1017 z "},"}":{"ha":610,"x_min":0,"x_max":475,"o":"m 339 239 l 339 68 q 260 -124 339 -45 q 68 -203 180 -203 l 0 -203 l 0 -68 l 68 -68 q 164 -28 124 -68 q 203 68 203 12 l 203 339 q 299 379 260 339 q 339 475 339 418 q 299 571 339 531 q 203 610 260 610 l 203 882 q 164 978 203 938 q 68 1017 124 1017 l 0 1017 l 0 1153 l 68 1153 q 260 1074 180 1153 q 339 882 339 994 l 339 711 q 395 667 369 693 q 475 475 475 587 q 395 283 475 362 q 339 239 369 256 z "},"~":{"ha":1085,"x_min":0,"x_max":949,"o":"m 949 475 l 814 475 q 774 571 814 531 q 678 610 734 610 l 678 611 q 582 571 622 611 q 543 475 543 532 q 463 283 543 363 q 271 204 384 204 l 271 203 q 79 283 159 203 q 0 475 0 362 l 136 475 q 175 379 136 418 q 271 339 215 339 l 271 340 q 367 379 328 340 q 407 475 407 419 q 486 667 407 588 q 678 747 566 747 l 678 746 q 870 667 791 746 q 949 475 949 587 z "},"¡":{"ha":339,"x_min":0,"x_max":203,"o":"m 168 610 l 168 0 l 32 0 l 32 610 l 168 610 m 102 746 q 30 776 60 746 q 0 848 0 806 q 30 920 0 890 q 102 949 60 949 q 174 920 144 949 q 203 848 203 890 q 174 776 203 806 q 102 746 144 746 z "},"¢":{"ha":678,"x_min":0,"x_max":543,"o":"m 407 746 l 384 654 q 463 599 427 635 q 543 407 543 519 l 407 407 q 367 503 407 463 q 350 517 359 511 l 255 137 q 271 136 263 136 l 271 136 q 367 175 328 136 q 407 271 407 215 l 543 271 q 463 79 543 159 q 271 0 384 0 l 271 1 q 222 5 245 1 l 203 -68 l 136 -68 l 159 24 q 79 80 115 43 q 0 271 0 159 l 0 407 q 79 599 0 519 q 271 678 159 678 q 321 674 297 678 l 339 746 l 407 746 m 175 176 q 193 161 184 168 l 288 541 q 271 543 279 543 q 175 503 215 543 q 136 407 136 463 l 136 272 q 175 176 136 216 z "},"£":{"ha":543,"x_min":0,"x_max":407,"o":"m 68 678 q 147 870 68 791 q 339 949 227 949 l 407 949 l 407 814 l 339 814 q 243 774 283 814 q 203 678 203 734 l 339 678 l 339 543 l 203 543 l 203 135 l 406 135 l 406 -1 l 0 0 l 0 136 l 68 136 l 68 543 l 0 543 l 0 678 l 68 678 z "},"¤":{"ha":846,"x_min":0,"x_max":711,"o":"m 355 627 q 260 587 299 627 q 220 491 220 547 q 260 396 220 435 q 355 356 299 356 l 355 355 q 452 395 412 355 q 491 490 491 434 q 452 586 491 547 q 355 626 412 626 l 355 627 m 121 629 l 0 751 l 96 846 l 217 725 q 355 762 278 762 l 355 762 q 494 725 432 762 l 615 846 l 711 751 l 589 629 q 627 491 627 568 l 627 490 q 589 353 627 414 l 711 231 l 615 136 l 494 257 q 355 220 433 220 l 355 220 q 218 257 279 220 l 96 136 l 0 231 l 121 353 q 84 491 84 414 l 84 492 q 121 629 84 568 z "},"¥":{"ha":678,"x_min":0,"x_max":543,"o":"m 543 543 l 543 475 l 339 475 l 339 407 l 475 407 l 475 339 l 339 339 l 339 0 l 203 0 l 203 339 l 68 339 l 68 407 l 203 407 l 203 475 l 0 475 l 0 543 l 174 543 l 0 949 l 136 949 l 271 633 l 407 949 l 543 949 l 368 543 l 543 543 z "},"¦":{"ha":271,"x_min":0,"x_max":136,"o":"m 136 949 l 136 543 l 0 543 l 0 949 l 136 949 m 136 407 l 136 0 l 0 0 l 0 407 l 136 407 z "},"§":{"ha":679,"x_min":0,"x_max":543,"o":"m 271 -203 q 79 -124 159 -203 q 0 68 0 -45 l 136 68 q 175 -28 136 12 q 271 -68 215 -68 q 367 -28 328 -68 q 407 68 407 12 l 408 68 q 368 163 408 124 q 277 203 330 201 l 277 203 l 272 203 l 271 203 l 266 203 q 79 283 157 205 q 0 475 0 362 q 79 667 0 587 q 92 678 85 673 q 80 690 85 684 q 1 882 1 769 l 0 882 q 79 1074 0 994 q 271 1153 159 1153 q 463 1074 384 1153 q 543 882 543 994 l 407 882 q 367 978 407 938 q 271 1017 328 1017 q 175 978 215 1017 q 136 882 136 938 l 136 882 q 176 786 136 825 q 272 746 216 746 q 464 667 385 746 q 543 475 543 587 l 543 475 q 463 283 543 362 q 451 271 457 277 q 464 260 458 266 q 543 68 543 180 l 543 68 q 463 -124 543 -45 q 271 -203 384 -203 m 271 339 q 367 379 328 339 q 407 475 407 418 q 367 571 407 531 q 271 610 328 610 q 175 571 215 610 q 136 475 136 531 l 136 475 q 176 378 136 418 q 266 339 214 341 l 271 339 z "},"¨":{"ha":678,"x_min":0,"x_max":543,"o":"m 203 848 q 174 776 203 806 q 102 746 144 746 q 30 776 60 746 q 0 848 0 806 q 30 920 0 890 q 102 949 60 949 q 174 920 144 949 q 203 848 203 890 m 543 848 q 513 776 543 806 q 441 746 483 746 q 369 776 399 746 q 339 848 339 806 q 369 920 339 890 q 441 949 399 949 q 513 920 483 949 q 543 848 543 890 z "},"©":{"ha":1221,"x_min":0,"x_max":1085,"o":"m 1085 678 l 1085 0 q 1006 -192 1085 -113 q 814 -271 926 -271 l 271 -271 q 79 -192 159 -271 q 0 0 0 -113 l 0 678 q 79 870 0 791 q 271 949 159 949 l 814 949 q 1006 870 926 949 q 1085 678 1085 791 m 136 678 l 136 0 q 175 -96 136 -56 q 271 -136 215 -136 l 814 -136 q 910 -96 870 -136 q 949 0 949 -56 l 949 678 q 910 774 949 734 q 814 814 870 814 l 271 814 q 175 774 215 814 q 136 678 136 734 m 814 271 q 734 79 814 159 q 543 0 655 0 l 543 1 q 351 80 430 1 q 271 272 271 159 l 271 407 q 351 599 271 519 q 543 678 430 678 l 543 543 q 447 503 486 543 q 407 407 407 463 l 407 271 q 446 176 407 215 q 543 136 486 136 l 543 136 q 638 175 599 136 q 678 271 678 215 l 814 271 m 679 406 q 639 502 679 463 q 543 542 600 542 l 543 677 q 735 598 656 677 q 814 406 814 519 l 679 406 z "},"ª":{"ha":678,"x_min":0,"x_max":543,"o":"m 271 339 l 271 340 q 368 380 328 340 q 407 475 407 419 q 368 571 407 531 q 271 610 328 610 l 271 610 q 175 570 215 610 q 136 475 136 530 q 175 379 136 418 q 271 339 215 339 m 407 239 q 271 204 347 204 l 271 203 q 79 283 159 203 q 0 474 0 362 l 0 475 q 79 666 0 587 q 271 745 159 745 l 271 746 q 403 713 344 746 q 368 774 394 747 q 271 814 328 814 l 68 814 l 68 949 l 271 949 q 463 870 384 949 q 543 678 543 791 l 543 203 l 407 203 l 407 239 z "},"«":{"ha":1017,"x_min":0,"x_max":882,"o":"m 543 68 l 0 475 l 543 882 l 543 746 l 203 475 l 543 203 l 543 68 m 882 68 l 339 475 l 882 882 l 882 746 l 543 475 l 882 203 l 882 68 z "},"¬":{"ha":678,"x_min":0,"x_max":543,"o":"m 543 949 l 543 678 l 407 678 l 407 814 l 0 814 l 0 949 l 543 949 z "},"®":{"ha":1221,"x_min":0,"x_max":1085,"o":"m 1085 678 l 1085 0 q 1006 -192 1085 -113 q 814 -271 926 -271 l 271 -271 q 79 -192 159 -271 q 0 0 0 -113 l 0 678 q 79 870 0 791 q 271 949 159 949 l 814 949 q 1006 870 926 949 q 1085 678 1085 791 m 136 678 l 136 0 q 175 -96 136 -56 q 271 -136 215 -136 l 814 -136 q 910 -96 870 -136 q 949 0 949 -56 l 949 678 q 910 774 949 734 q 814 814 870 814 l 271 814 q 175 774 215 814 q 136 678 136 734 m 678 0 l 585 138 q 543 136 564 136 q 407 171 467 136 l 407 0 l 271 0 l 271 678 l 407 678 l 407 642 q 543 678 467 678 l 543 543 q 447 503 486 543 q 407 407 407 463 l 407 401 q 446 311 409 349 q 543 271 486 271 q 638 311 599 271 q 678 407 678 351 l 679 407 q 639 502 678 463 q 543 542 600 542 l 543 677 q 735 598 656 677 q 814 406 814 519 l 814 406 q 734 215 813 294 q 693 180 715 195 l 814 0 l 678 0 z "},"¯":{"ha":678,"x_min":0,"x_max":543,"o":"m 543 949 l 543 814 l 0 814 l 0 949 l 543 949 z "},"°":{"ha":678,"x_min":0,"x_max":543,"o":"m 271 949 l 271 949 q 463 870 384 949 q 543 679 543 791 l 543 678 q 463 487 543 566 q 271 408 384 408 l 271 407 q 79 486 159 407 q 0 677 1 565 l 0 678 q 79 869 1 790 q 271 949 159 949 m 271 543 l 271 543 q 368 583 328 543 q 407 678 407 623 q 368 774 407 734 q 271 814 328 814 l 271 813 q 176 773 215 813 q 136 677 136 734 q 176 582 136 621 q 271 543 215 543 z "},"±":{"ha":678,"x_min":0,"x_max":543,"o":"m 339 203 l 203 203 l 203 407 l 0 407 l 0 543 l 203 543 l 203 746 l 339 746 l 339 543 l 543 543 l 543 407 l 339 407 l 339 203 m 543 136 l 543 0 l 0 0 l 0 136 l 543 136 z "},"²":{"ha":407,"x_min":0,"x_max":271,"o":"m 136 882 q 88 862 108 882 q 68 814 68 842 l 0 814 q 40 910 0 870 q 136 949 79 949 q 232 910 192 949 q 271 814 271 870 q 232 718 271 758 q 136 678 192 678 q 88 659 108 678 q 68 610 68 639 l 68 543 l 271 543 l 271 475 l 0 475 l 0 610 q 40 706 0 667 q 136 746 79 746 q 184 766 164 746 q 203 814 203 786 q 184 862 203 842 q 136 882 164 882 z "},"³":{"ha":407,"x_min":0,"x_max":271,"o":"m 136 475 q 40 515 79 475 q 0 611 0 555 l 68 611 q 88 563 68 583 q 136 543 108 543 l 136 543 q 184 563 164 543 q 203 610 203 583 q 184 659 203 639 q 136 678 164 678 l 102 678 l 102 746 l 136 746 q 184 766 164 746 q 203 814 203 786 q 184 862 203 842 q 136 882 164 882 q 88 862 108 882 q 68 814 68 842 l 0 814 q 40 910 0 870 q 136 949 79 949 q 232 910 192 949 q 271 814 271 870 q 232 718 271 758 q 226 712 229 715 q 232 707 229 709 q 271 610 271 667 q 232 514 271 554 q 136 475 192 475 l 136 475 z "},"´":{"ha":407,"x_min":0,"x_max":271,"o":"m 271 949 l 136 678 l 0 678 l 136 949 l 271 949 z "},"µ":{"ha":679,"x_min":0,"x_max":543,"o":"m 408 0 l 408 36 q 271 0 347 0 l 271 1 q 136 36 196 1 l 136 -271 l 0 -271 l 0 271 l 0 272 l 1 272 l 1 677 l 136 677 l 136 271 l 136 271 q 175 176 136 215 q 271 136 215 136 l 271 136 q 367 175 328 136 q 407 271 407 215 l 408 271 l 408 678 l 543 678 l 543 0 l 408 0 z "},"¶":{"ha":949,"x_min":0,"x_max":814,"o":"m 407 949 l 814 949 l 814 814 l 678 814 l 678 0 l 543 0 l 543 814 l 407 814 l 407 0 l 271 0 l 271 407 q 79 486 159 407 q 0 678 0 566 q 79 870 0 791 q 271 949 159 949 l 407 949 m 136 678 q 175 582 136 622 q 271 543 215 543 l 271 814 q 175 774 215 814 q 136 678 136 734 z "},"·":{"ha":339,"x_min":0,"x_max":203,"o":"m 203 441 q 174 369 203 399 q 102 339 144 339 q 30 369 60 339 q 0 441 0 399 q 30 513 0 483 q 102 543 60 543 q 174 513 144 543 q 203 441 203 483 z "},"¸":{"ha":407,"x_min":0,"x_max":271,"o":"m 68 68 l 68 -68 q 271 -203 203 -68 q 0 -339 203 -339 l 0 -271 q 177 -203 136 -271 q 0 -136 136 -136 l 0 68 l 68 68 z "},"¹":{"ha":256,"x_min":0,"x_max":120,"o":"m 120 949 l 120 475 l 52 475 l 52 848 l 51 848 q 15 863 30 848 q 0 899 0 878 q 15 935 0 920 q 51 949 30 949 l 120 949 z "},"º":{"ha":407,"x_min":0,"x_max":271,"o":"m 271 610 q 232 515 271 554 q 136 475 192 475 q 40 514 79 475 q 0 610 0 554 l 0 814 q 40 910 0 870 q 136 949 79 949 q 232 910 192 949 q 271 814 271 870 l 271 610 m 203 814 q 184 862 203 842 q 136 882 164 882 q 88 862 108 882 q 68 814 68 842 l 68 610 q 88 563 68 583 q 136 543 108 543 q 184 563 164 543 q 203 610 203 583 l 203 814 z "},"»":{"ha":1017,"x_min":0,"x_max":882,"o":"m 339 203 l 678 475 l 339 746 l 339 882 l 882 475 l 339 68 l 339 203 m 0 203 l 339 475 l 0 746 l 0 882 l 543 475 l 0 68 l 0 203 z "},"¼":{"ha":1085,"x_min":0,"x_max":949,"o":"m 746 949 l 339 0 l 203 0 l 610 949 l 746 949 m 678 339 l 746 339 l 746 136 l 882 136 l 882 271 l 949 271 l 949 -136 l 882 -136 l 882 68 l 678 68 l 678 339 m 120 1085 l 120 610 l 52 610 l 52 983 l 51 983 q 15 998 30 983 q 0 1034 0 1013 q 15 1070 0 1055 q 51 1085 30 1085 l 120 1085 z "},"½":{"ha":1085,"x_min":0,"x_max":949,"o":"m 746 949 l 339 0 l 203 0 l 610 949 l 746 949 m 120 1085 l 120 610 l 52 610 l 52 983 l 51 983 q 15 998 30 983 q 0 1034 0 1013 q 15 1070 0 1055 q 51 1085 30 1085 l 120 1085 m 814 271 q 766 252 786 271 q 746 203 746 232 l 678 203 q 718 299 678 260 q 814 339 758 339 q 910 299 870 339 q 949 203 949 260 q 910 107 949 147 q 814 68 870 68 q 766 48 786 68 q 746 0 746 28 l 746 -68 l 949 -68 l 949 -136 l 678 -136 l 678 0 q 718 96 678 56 q 814 136 758 136 q 862 156 842 136 q 882 203 882 176 q 862 252 882 232 q 814 271 842 271 z "},"¾":{"ha":1085,"x_min":0,"x_max":949,"o":"m 746 949 l 339 0 l 203 0 l 610 949 l 746 949 m 136 611 q 40 651 79 611 q 0 747 0 690 l 68 747 q 88 699 68 718 q 136 679 108 679 l 136 678 q 184 698 164 678 q 203 746 203 718 q 184 794 203 774 q 136 814 164 814 l 102 814 l 102 882 l 136 882 q 184 902 164 882 q 203 949 203 922 q 184 998 203 978 q 136 1017 164 1017 q 88 998 108 1017 q 68 949 68 978 l 0 949 q 40 1045 0 1006 q 136 1085 79 1085 q 232 1045 192 1085 q 271 949 271 1006 q 232 854 271 893 q 226 848 229 850 q 232 842 229 845 q 271 746 271 802 q 232 650 271 690 q 136 610 192 610 l 136 611 m 678 339 l 746 339 l 746 136 l 882 136 l 882 271 l 949 271 l 949 -136 l 882 -136 l 882 68 l 678 68 l 678 339 z "},"¿":{"ha":678,"x_min":0,"x_max":543,"o":"m 170 848 q 199 920 170 890 q 271 949 229 949 q 343 920 313 949 q 373 848 373 890 q 343 776 373 806 q 271 746 313 746 q 199 776 229 746 q 170 848 170 806 m 271 136 q 367 175 328 136 q 407 271 407 215 l 543 271 q 463 79 543 159 q 271 0 384 0 q 79 79 159 0 q 0 271 0 159 q 79 463 0 384 q 203 534 134 517 l 203 610 l 339 610 l 339 407 l 271 407 q 175 367 215 407 q 136 271 136 328 q 175 175 136 215 q 271 136 215 136 z "},"À":{"ha":678,"x_min":0,"x_max":543,"o":"m 271 1289 l 339 1085 l 203 1085 l 136 1289 l 271 1289 m 407 407 l 136 407 l 136 1 l 0 1 l 0 678 q 79 870 0 791 q 271 949 159 949 q 463 870 384 949 q 543 678 543 791 l 543 0 l 407 0 l 407 407 m 407 678 q 367 774 407 734 q 271 814 328 814 q 175 774 215 814 q 136 678 136 734 l 136 543 l 407 543 l 407 678 z "},"Á":{"ha":678,"x_min":0,"x_max":543,"o":"m 407 1289 l 339 1085 l 203 1085 l 271 1289 l 407 1289 m 407 407 l 136 407 l 136 1 l 0 1 l 0 678 q 79 870 0 791 q 271 949 159 949 q 463 870 384 949 q 543 678 543 791 l 543 0 l 407 0 l 407 407 m 407 678 q 367 774 407 734 q 271 814 328 814 q 175 774 215 814 q 136 678 136 734 l 136 543 l 407 543 l 407 678 z "},"Â":{"ha":678,"x_min":0,"x_max":543,"o":"m 407 407 l 136 407 l 136 1 l 0 1 l 0 678 q 79 870 0 791 q 271 949 159 949 q 463 870 384 949 q 543 678 543 791 l 543 0 l 407 0 l 407 407 m 407 678 q 367 774 407 734 q 271 814 328 814 q 175 774 215 814 q 136 678 136 734 l 136 543 l 407 543 l 407 678 m 136 1085 l 204 1289 l 340 1289 l 408 1085 l 136 1085 z "},"Ã":{"ha":678,"x_min":0,"x_max":543,"o":"m 136 1221 q 271 1221 203 1289 q 407 1221 339 1153 l 407 1085 q 271 1085 339 1017 q 136 1085 203 1153 l 136 1221 m 407 407 l 136 407 l 136 1 l 0 1 l 0 678 q 79 870 0 791 q 271 949 159 949 q 463 870 384 949 q 543 678 543 791 l 543 0 l 407 0 l 407 407 m 407 678 q 367 774 407 734 q 271 814 328 814 q 175 774 215 814 q 136 678 136 734 l 136 543 l 407 543 l 407 678 z "},"Ä":{"ha":678,"x_min":0,"x_max":543,"o":"m 407 407 l 136 407 l 136 1 l 0 1 l 0 678 q 79 870 0 791 q 271 949 159 949 q 463 870 384 949 q 543 678 543 791 l 543 0 l 407 0 l 407 407 m 407 678 q 367 774 407 734 q 271 814 328 814 q 175 774 215 814 q 136 678 136 734 l 136 543 l 407 543 l 407 678 m 203 1153 q 183 1105 203 1125 q 136 1085 163 1085 q 88 1105 108 1085 q 68 1153 68 1125 q 88 1201 68 1181 q 136 1221 108 1221 q 183 1201 163 1221 q 203 1153 203 1181 m 475 1153 q 455 1105 475 1125 q 407 1085 435 1085 q 359 1105 379 1085 q 339 1153 339 1125 q 359 1201 339 1181 q 407 1221 379 1221 q 455 1201 435 1221 q 475 1153 475 1181 z "},"Å":{"ha":678,"x_min":0,"x_max":543,"o":"m 407 407 l 136 407 l 136 1 l 0 1 l 0 678 q 79 870 0 791 q 271 949 159 949 q 463 870 384 949 q 543 678 543 791 l 543 0 l 407 0 l 407 407 m 407 678 q 367 774 407 734 q 271 814 328 814 q 175 774 215 814 q 136 678 136 734 l 136 543 l 407 543 l 407 678 m 407 1085 q 367 989 407 1029 q 271 949 328 949 q 175 989 215 949 q 136 1085 136 1029 q 175 1181 136 1141 q 271 1221 215 1221 q 367 1181 328 1221 q 407 1085 407 1141 m 271 1153 q 223 1133 243 1153 q 203 1085 203 1113 q 223 1037 203 1057 q 271 1017 243 1017 q 319 1037 299 1017 q 339 1085 339 1057 q 319 1133 339 1113 q 271 1153 299 1153 z "},"Æ":{"ha":1085,"x_min":0,"x_max":949,"o":"m 407 407 l 136 407 l 136 1 l 0 1 l 0 678 q 79 870 0 791 q 271 949 159 949 q 407 914 347 949 l 407 949 l 949 949 l 949 814 l 543 814 l 543 543 l 813 543 l 813 407 l 543 407 l 543 136 l 949 136 l 949 0 l 407 0 l 407 407 m 407 678 q 367 774 407 734 q 271 814 328 814 q 175 774 215 814 q 136 678 136 734 l 136 543 l 407 543 l 407 678 z "},"Ç":{"ha":678,"x_min":0,"x_max":543,"o":"m 271 136 q 367 175 328 136 q 407 271 407 215 l 543 271 q 463 79 543 159 q 304 1 395 12 l 304 -68 q 507 -203 439 -68 q 236 -339 439 -339 l 236 -271 q 413 -203 372 -271 q 236 -136 372 -136 l 236 2 q 79 79 146 12 q 0 271 0 159 l 0 678 q 79 870 0 791 q 271 949 159 949 q 463 870 384 949 q 543 678 543 791 l 407 678 q 367 774 407 734 q 271 814 328 814 q 175 774 215 814 q 136 678 136 734 l 136 271 q 175 175 136 215 q 271 136 215 136 z "},"È":{"ha":678,"x_min":0,"x_max":543,"o":"m 543 949 l 543 814 l 136 814 l 136 543 l 406 543 l 406 407 l 136 407 l 136 136 l 543 136 l 543 0 l 0 0 l 0 949 l 543 949 m 271 1289 l 339 1085 l 203 1085 l 136 1289 l 271 1289 z "},"É":{"ha":678,"x_min":0,"x_max":543,"o":"m 543 949 l 543 814 l 136 814 l 136 543 l 406 543 l 406 407 l 136 407 l 136 136 l 543 136 l 543 0 l 0 0 l 0 949 l 543 949 m 407 1289 l 339 1085 l 203 1085 l 271 1289 l 407 1289 z "},"Ê":{"ha":678,"x_min":0,"x_max":543,"o":"m 543 949 l 543 814 l 136 814 l 136 543 l 406 543 l 406 407 l 136 407 l 136 136 l 543 136 l 543 0 l 0 0 l 0 949 l 543 949 m 136 1085 l 203 1289 l 339 1289 l 407 1085 l 136 1085 z "},"Ë":{"ha":678,"x_min":0,"x_max":543,"o":"m 543 949 l 543 814 l 136 814 l 136 543 l 406 543 l 406 407 l 136 407 l 136 136 l 543 136 l 543 0 l 0 0 l 0 949 l 543 949 m 203 1153 q 183 1105 203 1125 q 136 1085 163 1085 q 88 1105 108 1085 q 68 1153 68 1125 q 88 1201 68 1181 q 136 1221 108 1221 q 183 1201 163 1221 q 203 1153 203 1181 m 475 1153 q 455 1105 475 1125 q 407 1085 435 1085 q 359 1105 379 1085 q 339 1153 339 1125 q 359 1201 339 1181 q 407 1221 379 1221 q 455 1201 435 1221 q 475 1153 475 1181 z "},"Ì":{"ha":271,"x_min":-68,"x_max":136,"o":"m 136 949 l 136 0 l 0 0 l 0 949 l 136 949 m 68 1289 l 136 1085 l 0 1085 l -68 1289 l 68 1289 z "},"Í":{"ha":339,"x_min":0,"x_max":203,"o":"m 136 949 l 136 0 l 0 0 l 0 949 l 136 949 m 203 1289 l 136 1085 l 0 1085 l 68 1289 l 203 1289 z "},"Î":{"ha":407,"x_min":0,"x_max":271,"o":"m 203 949 l 203 0 l 68 0 l 68 949 l 203 949 m 0 1085 l 68 1289 l 203 1289 l 271 1085 l 0 1085 z "},"Ï":{"ha":543,"x_min":0,"x_max":407,"o":"m 271 949 l 271 0 l 136 0 l 136 949 l 271 949 m 136 1153 q 116 1105 136 1125 q 68 1085 96 1085 q 20 1105 40 1085 q 0 1153 0 1125 q 20 1201 0 1181 q 68 1221 40 1221 q 116 1201 96 1221 q 136 1153 136 1181 m 407 1153 q 387 1105 407 1125 q 339 1085 367 1085 q 291 1105 311 1085 q 271 1153 271 1125 q 291 1201 271 1181 q 339 1221 311 1221 q 387 1201 367 1221 q 407 1153 407 1181 z "},"Ð":{"ha":746,"x_min":0,"x_max":610,"o":"m 203 407 l 203 136 l 339 136 q 435 175 395 136 q 475 271 475 215 l 475 678 q 435 774 475 734 q 339 814 395 814 l 203 814 l 203 543 l 339 543 l 339 407 l 203 407 m 68 543 l 68 949 l 339 949 q 531 870 452 949 q 610 678 610 791 l 610 271 q 531 79 610 159 q 339 0 452 0 l 68 0 l 68 407 l 0 407 l 0 543 l 68 543 z "},"Ñ":{"ha":678,"x_min":0,"x_max":543,"o":"m 136 633 l 136 0 l 0 0 l 0 949 l 136 949 l 407 317 l 407 949 l 543 949 l 543 0 l 407 0 l 136 633 m 136 1221 q 271 1221 203 1289 q 407 1221 339 1153 l 407 1085 q 271 1085 339 1017 q 136 1085 203 1153 l 136 1221 z "},"Ò":{"ha":678,"x_min":0,"x_max":543,"o":"m 543 271 q 463 79 543 159 q 271 0 384 0 q 79 79 159 0 q 0 271 0 159 l 0 678 q 79 870 0 791 q 271 949 159 949 q 463 870 384 949 q 543 678 543 791 l 543 271 m 407 678 q 367 774 407 734 q 271 814 328 814 q 175 774 215 814 q 136 678 136 734 l 136 271 q 175 175 136 215 q 271 136 215 136 q 367 175 328 136 q 407 271 407 215 l 407 678 m 271 1289 l 339 1085 l 203 1085 l 136 1289 l 271 1289 z "},"Ó":{"ha":678,"x_min":0,"x_max":543,"o":"m 543 271 q 463 79 543 159 q 271 0 384 0 q 79 79 159 0 q 0 271 0 159 l 0 678 q 79 870 0 791 q 271 949 159 949 q 463 870 384 949 q 543 678 543 791 l 543 271 m 407 678 q 367 774 407 734 q 271 814 328 814 q 175 774 215 814 q 136 678 136 734 l 136 271 q 175 175 136 215 q 271 136 215 136 q 367 175 328 136 q 407 271 407 215 l 407 678 m 407 1289 l 339 1085 l 203 1085 l 271 1289 l 407 1289 z "},"Ô":{"ha":678,"x_min":0,"x_max":543,"o":"m 543 271 q 463 79 543 159 q 271 0 384 0 q 79 79 159 0 q 0 271 0 159 l 0 678 q 79 870 0 791 q 271 949 159 949 q 463 870 384 949 q 543 678 543 791 l 543 271 m 407 678 q 367 774 407 734 q 271 814 328 814 q 175 774 215 814 q 136 678 136 734 l 136 271 q 175 175 136 215 q 271 136 215 136 q 367 175 328 136 q 407 271 407 215 l 407 678 m 136 1085 l 203 1289 l 339 1289 l 407 1085 l 136 1085 z "},"Õ":{"ha":678,"x_min":0,"x_max":543,"o":"m 543 271 q 463 79 543 159 q 271 0 384 0 q 79 79 159 0 q 0 271 0 159 l 0 678 q 79 870 0 791 q 271 949 159 949 q 463 870 384 949 q 543 678 543 791 l 543 271 m 407 678 q 367 774 407 734 q 271 814 328 814 q 175 774 215 814 q 136 678 136 734 l 136 271 q 175 175 136 215 q 271 136 215 136 q 367 175 328 136 q 407 271 407 215 l 407 678 m 136 1221 q 271 1221 203 1289 q 407 1221 339 1153 l 407 1085 q 271 1085 339 1017 q 136 1085 203 1153 l 136 1221 z "},"Ö":{"ha":678,"x_min":0,"x_max":543,"o":"m 543 271 q 463 79 543 159 q 271 0 384 0 q 79 79 159 0 q 0 271 0 159 l 0 678 q 79 870 0 791 q 271 949 159 949 q 463 870 384 949 q 543 678 543 791 l 543 271 m 407 678 q 367 774 407 734 q 271 814 328 814 q 175 774 215 814 q 136 678 136 734 l 136 271 q 175 175 136 215 q 271 136 215 136 q 367 175 328 136 q 407 271 407 215 l 407 678 m 203 1153 q 183 1105 203 1125 q 136 1085 163 1085 q 88 1105 108 1085 q 68 1153 68 1125 q 88 1201 68 1181 q 136 1221 108 1221 q 183 1201 163 1221 q 203 1153 203 1181 m 475 1153 q 455 1105 475 1125 q 407 1085 435 1085 q 359 1105 379 1085 q 339 1153 339 1125 q 359 1201 339 1181 q 407 1221 379 1221 q 455 1201 435 1221 q 475 1153 475 1181 z "},"×":{"ha":616,"x_min":1,"x_max":481,"o":"m 241 572 l 385 715 l 481 620 l 337 476 l 481 332 l 385 236 l 241 380 l 97 236 l 1 332 l 145 476 l 1 620 l 97 715 l 241 572 z "},"Ø":{"ha":678,"x_min":0,"x_max":543,"o":"m 475 1017 l 436 894 q 463 870 450 883 q 543 678 543 791 l 543 271 q 463 79 543 159 q 271 0 384 0 q 163 21 213 0 l 136 -68 l 68 -68 l 106 55 q 79 79 92 66 q 0 271 0 159 l 0 678 q 79 870 0 791 q 271 949 159 949 q 379 928 330 949 l 407 1017 l 475 1017 m 407 678 q 389 745 407 715 l 204 153 q 271 136 234 136 q 367 175 328 136 q 407 271 407 215 l 407 678 m 271 814 q 175 774 215 814 q 136 678 136 734 l 136 271 q 153 204 136 234 l 338 797 q 271 814 308 814 z "},"Ù":{"ha":679,"x_min":0,"x_max":543,"o":"m 1 271 l 0 949 l 136 949 l 136 271 l 136 271 q 175 175 136 215 q 271 136 215 136 q 367 175 328 136 q 407 271 407 215 l 408 271 l 407 949 l 543 949 l 543 271 l 543 271 q 463 79 543 159 q 271 0 384 0 q 79 79 159 0 q 0 271 0 159 l 1 271 m 271 1289 l 339 1085 l 203 1085 l 136 1289 l 271 1289 z "},"Ú":{"ha":679,"x_min":0,"x_max":543,"o":"m 1 271 l 0 949 l 136 949 l 136 271 l 136 271 q 175 175 136 215 q 271 136 215 136 q 367 175 328 136 q 407 271 407 215 l 408 271 l 407 949 l 543 949 l 543 271 l 543 271 q 463 79 543 159 q 271 0 384 0 q 79 79 159 0 q 0 271 0 159 l 1 271 m 407 1289 l 339 1085 l 203 1085 l 271 1289 l 407 1289 z "},"Û":{"ha":679,"x_min":0,"x_max":543,"o":"m 1 271 l 0 949 l 136 949 l 136 271 l 136 271 q 175 175 136 215 q 271 136 215 136 q 367 175 328 136 q 407 271 407 215 l 408 271 l 407 949 l 543 949 l 543 271 l 543 271 q 463 79 543 159 q 271 0 384 0 q 79 79 159 0 q 0 271 0 159 l 1 271 m 136 1085 l 203 1289 l 339 1289 l 407 1085 l 136 1085 z "},"Ü":{"ha":679,"x_min":0,"x_max":543,"o":"m 1 271 l 0 949 l 136 949 l 136 271 l 136 271 q 175 175 136 215 q 271 136 215 136 q 367 175 328 136 q 407 271 407 215 l 408 271 l 407 949 l 543 949 l 543 271 l 543 271 q 463 79 543 159 q 271 0 384 0 q 79 79 159 0 q 0 271 0 159 l 1 271 m 203 1153 q 183 1105 203 1125 q 136 1085 163 1085 q 88 1105 108 1085 q 68 1153 68 1125 q 88 1201 68 1181 q 136 1221 108 1221 q 183 1201 163 1221 q 203 1153 203 1181 m 475 1153 q 455 1105 475 1125 q 407 1085 435 1085 q 359 1105 379 1085 q 339 1153 339 1125 q 359 1201 339 1181 q 407 1221 379 1221 q 455 1201 435 1221 q 475 1153 475 1181 z "},"Ý":{"ha":678,"x_min":0,"x_max":543,"o":"m 203 475 l 0 949 l 136 949 l 271 633 l 407 949 l 543 949 l 339 475 l 339 0 l 203 0 l 203 475 m 407 1289 l 339 1085 l 203 1085 l 271 1289 l 407 1289 z "},"Þ":{"ha":678,"x_min":0,"x_max":543,"o":"m 136 203 l 136 0 l 0 0 l 0 949 l 136 949 l 136 746 l 271 746 q 463 667 384 746 q 543 475 543 587 q 463 283 543 362 q 271 203 384 203 l 136 203 m 136 610 l 136 339 l 271 339 q 367 379 328 339 q 407 475 407 418 q 367 571 407 531 q 271 610 328 610 l 136 610 z "},"ß":{"ha":746,"x_min":0,"x_max":610,"o":"m 339 0 l 271 0 l 271 136 l 339 136 q 435 175 395 136 q 475 271 475 215 q 435 367 475 328 q 339 407 395 407 l 136 407 l 136 0 l 0 0 l 0 678 q 79 870 0 791 q 271 949 159 949 q 463 870 384 949 q 543 678 543 791 q 479 504 543 578 q 531 463 507 488 q 610 271 610 384 q 531 79 610 159 q 339 0 452 0 m 271 543 q 367 582 328 543 q 407 678 407 622 q 367 774 407 734 q 271 814 328 814 q 175 774 215 814 q 136 678 136 734 q 175 582 136 622 q 271 543 215 543 z "},"à":{"ha":678,"x_min":0,"x_max":543,"o":"m 407 270 l 407 408 q 368 503 406 463 q 271 542 328 542 l 271 543 q 175 503 215 543 q 136 407 136 463 l 136 272 q 175 176 136 216 q 271 136 215 136 l 271 136 q 368 176 328 136 q 407 270 406 214 m 543 0 l 407 0 l 407 35 q 271 0 347 0 l 271 1 q 79 80 159 1 q 0 271 0 159 l 0 407 q 79 599 0 519 q 271 678 159 678 l 271 677 q 407 642 347 677 l 407 678 l 543 678 l 543 0 m 271 1017 l 339 814 l 203 814 l 136 1017 l 271 1017 z "},"á":{"ha":678,"x_min":0,"x_max":543,"o":"m 407 270 l 407 408 q 368 503 406 463 q 271 542 328 542 l 271 543 q 175 503 215 543 q 136 407 136 463 l 136 272 q 175 176 136 216 q 271 136 215 136 l 271 136 q 368 176 328 136 q 407 270 406 214 m 543 0 l 407 0 l 407 35 q 271 0 347 0 l 271 1 q 79 80 159 1 q 0 271 0 159 l 0 407 q 79 599 0 519 q 271 678 159 678 l 271 677 q 407 642 347 677 l 407 678 l 543 678 l 543 0 m 407 1017 l 339 814 l 203 814 l 271 1017 l 407 1017 z "},"â":{"ha":678,"x_min":0,"x_max":543,"o":"m 407 270 l 407 408 q 368 503 406 463 q 271 542 328 542 l 271 543 q 175 503 215 543 q 136 407 136 463 l 136 272 q 175 176 136 216 q 271 136 215 136 l 271 136 q 368 176 328 136 q 407 270 406 214 m 543 0 l 407 0 l 407 35 q 271 0 347 0 l 271 1 q 79 80 159 1 q 0 271 0 159 l 0 407 q 79 599 0 519 q 271 678 159 678 l 271 677 q 407 642 347 677 l 407 678 l 543 678 l 543 0 m 136 814 l 203 1017 l 339 1017 l 407 814 l 136 814 z "},"ã":{"ha":678,"x_min":0,"x_max":543,"o":"m 407 270 l 407 408 q 368 503 406 463 q 271 542 328 542 l 271 543 q 175 503 215 543 q 136 407 136 463 l 136 272 q 175 176 136 216 q 271 136 215 136 l 271 136 q 368 176 328 136 q 407 270 406 214 m 543 0 l 407 0 l 407 35 q 271 0 347 0 l 271 1 q 79 80 159 1 q 0 271 0 159 l 0 407 q 79 599 0 519 q 271 678 159 678 l 271 677 q 407 642 347 677 l 407 678 l 543 678 l 543 0 m 136 983 q 271 983 203 1051 q 407 983 339 916 l 407 848 q 271 848 339 780 q 136 848 203 916 l 136 983 z "},"ä":{"ha":678,"x_min":0,"x_max":543,"o":"m 407 270 l 407 408 q 368 503 406 463 q 271 542 328 542 l 271 543 q 175 503 215 543 q 136 407 136 463 l 136 272 q 175 176 136 216 q 271 136 215 136 l 271 136 q 368 176 328 136 q 407 270 406 214 m 543 0 l 407 0 l 407 35 q 271 0 347 0 l 271 1 q 79 80 159 1 q 0 271 0 159 l 0 407 q 79 599 0 519 q 271 678 159 678 l 271 677 q 407 642 347 677 l 407 678 l 543 678 l 543 0 m 203 882 q 183 834 203 854 q 136 814 163 814 q 88 834 108 814 q 68 882 68 854 q 88 929 68 909 q 136 949 108 949 q 183 929 163 949 q 203 882 203 909 m 475 882 q 455 834 475 854 q 407 814 435 814 q 359 834 379 814 q 339 882 339 854 q 359 929 339 909 q 407 949 379 949 q 455 929 435 949 q 475 882 475 909 z "},"å":{"ha":678,"x_min":0,"x_max":543,"o":"m 407 270 l 407 408 q 368 503 406 463 q 271 542 328 542 l 271 543 q 175 503 215 543 q 136 407 136 463 l 136 272 q 175 176 136 216 q 271 136 215 136 l 271 136 q 368 176 328 136 q 407 270 406 214 m 543 0 l 407 0 l 407 35 q 271 0 347 0 l 271 1 q 79 80 159 1 q 0 271 0 159 l 0 407 q 79 599 0 519 q 271 678 159 678 l 271 677 q 407 642 347 677 l 407 678 l 543 678 l 543 0 m 407 949 q 367 853 407 893 q 271 814 328 814 q 175 853 215 814 q 136 949 136 893 q 175 1045 136 1006 q 271 1085 215 1085 q 367 1045 328 1085 q 407 949 407 1006 m 271 1017 q 223 997 243 1017 q 203 949 203 977 q 223 902 203 922 q 271 882 243 882 q 319 902 299 882 q 339 949 339 922 q 319 997 339 977 q 271 1017 299 1017 z "},"æ":{"ha":1085,"x_min":0,"x_max":949,"o":"m 678 136 l 882 136 l 882 0 l 678 0 l 678 1 q 543 36 603 1 l 543 0 l 407 0 l 407 35 q 271 0 347 0 l 271 1 q 79 80 159 1 q 0 271 0 159 l 0 407 q 79 599 0 519 q 271 678 159 678 l 271 677 q 407 642 347 677 l 407 678 l 543 678 l 543 642 q 678 678 603 678 q 870 599 791 678 q 949 407 949 519 l 949 271 l 543 271 l 543 266 q 583 176 545 214 q 678 136 622 136 l 678 136 m 407 270 l 407 271 l 407 408 l 407 410 q 368 503 405 464 q 271 542 328 542 l 271 543 q 175 503 215 543 q 136 407 136 463 l 136 272 q 175 176 136 216 q 271 136 215 136 l 271 136 q 368 176 328 136 q 407 270 406 214 m 543 407 l 814 407 q 774 503 814 463 q 678 543 734 543 q 582 503 622 543 q 543 412 545 465 l 543 407 z "},"ç":{"ha":678,"x_min":0,"x_max":543,"o":"m 236 3 q 79 80 146 14 q 0 271 0 159 l 0 407 q 79 599 0 519 q 271 678 159 678 q 463 599 384 678 q 543 407 543 519 l 407 407 q 367 503 407 463 q 271 543 328 543 q 175 503 215 543 q 136 407 136 463 l 136 272 q 175 176 136 216 q 271 136 215 136 l 271 136 q 367 175 328 136 q 407 271 407 215 l 543 271 q 463 79 543 159 q 304 2 395 12 l 304 -68 q 507 -203 439 -68 q 236 -339 439 -339 l 236 -271 q 413 -203 372 -271 q 236 -136 372 -136 l 236 3 z "},"è":{"ha":678,"x_min":0,"x_max":543,"o":"m 271 136 l 475 136 l 475 0 l 271 0 l 271 1 q 79 80 159 1 q 0 271 0 159 l 0 407 q 79 599 0 519 q 271 678 159 678 q 463 599 384 678 q 543 407 543 519 l 543 271 l 136 271 q 176 176 136 216 q 271 136 215 136 l 271 136 m 136 407 l 407 407 q 367 503 407 463 q 271 543 328 543 q 175 503 215 543 q 136 407 136 463 m 271 1017 l 339 814 l 203 814 l 136 1017 l 271 1017 z "},"é":{"ha":678,"x_min":0,"x_max":543,"o":"m 271 136 l 475 136 l 475 0 l 271 0 l 271 1 q 79 80 159 1 q 0 271 0 159 l 0 407 q 79 599 0 519 q 271 678 159 678 q 463 599 384 678 q 543 407 543 519 l 543 271 l 136 271 q 176 176 136 216 q 271 136 215 136 l 271 136 m 136 407 l 407 407 q 367 503 407 463 q 271 543 328 543 q 175 503 215 543 q 136 407 136 463 m 407 1017 l 339 814 l 203 814 l 271 1017 l 407 1017 z "},"ê":{"ha":678,"x_min":0,"x_max":543,"o":"m 271 136 l 475 136 l 475 0 l 271 0 l 271 1 q 79 80 159 1 q 0 271 0 159 l 0 407 q 79 599 0 519 q 271 678 159 678 q 463 599 384 678 q 543 407 543 519 l 543 271 l 136 271 q 176 176 136 216 q 271 136 215 136 l 271 136 m 136 407 l 407 407 q 367 503 407 463 q 271 543 328 543 q 175 503 215 543 q 136 407 136 463 m 136 814 l 203 1017 l 339 1017 l 407 814 l 136 814 z "},"ë":{"ha":678,"x_min":0,"x_max":543,"o":"m 271 136 l 475 136 l 475 0 l 271 0 l 271 1 q 79 80 159 1 q 0 271 0 159 l 0 407 q 79 599 0 519 q 271 678 159 678 q 463 599 384 678 q 543 407 543 519 l 543 271 l 136 271 q 176 176 136 216 q 271 136 215 136 l 271 136 m 136 407 l 407 407 q 367 503 407 463 q 271 543 328 543 q 175 503 215 543 q 136 407 136 463 m 203 882 q 183 834 203 854 q 136 814 163 814 q 88 834 108 814 q 68 882 68 854 q 88 929 68 909 q 136 949 108 949 q 183 929 163 949 q 203 882 203 909 m 475 882 q 455 834 475 854 q 407 814 435 814 q 359 834 379 814 q 339 882 339 854 q 359 929 339 909 q 407 949 379 949 q 455 929 435 949 q 475 882 475 909 z "},"ì":{"ha":271,"x_min":-68,"x_max":136,"o":"m 136 678 l 136 0 l 0 0 l 0 678 l 136 678 m 68 1017 l 136 814 l 0 814 l -68 1017 l 68 1017 z "},"í":{"ha":339,"x_min":0,"x_max":203,"o":"m 136 678 l 136 0 l 0 0 l 0 678 l 136 678 m 203 1017 l 136 814 l 0 814 l 68 1017 l 203 1017 z "},"î":{"ha":407,"x_min":0,"x_max":271,"o":"m 203 678 l 203 0 l 68 0 l 68 678 l 203 678 m 0 814 l 68 1017 l 203 1017 l 271 814 l 0 814 z "},"ï":{"ha":543,"x_min":0,"x_max":407,"o":"m 271 678 l 271 0 l 136 0 l 136 678 l 271 678 m 136 882 q 116 834 136 854 q 68 814 96 814 q 20 834 40 814 q 0 882 0 854 q 20 929 0 909 q 68 949 40 949 q 116 929 96 949 q 136 882 136 909 m 407 882 q 387 834 407 854 q 339 814 367 814 q 291 834 311 814 q 271 882 271 854 q 291 929 271 909 q 339 949 311 949 q 387 929 367 949 q 407 882 407 909 z "},"ð":{"ha":678,"x_min":0,"x_max":543,"o":"m 543 271 q 463 79 542 158 q 271 0 384 0 l 271 1 q 79 80 159 1 q 0 271 0 159 l 0 407 q 79 599 0 519 q 271 678 159 678 l 271 677 q 407 642 347 677 l 407 678 q 367 774 407 734 q 271 814 328 814 l 136 814 l 136 949 l 271 949 q 463 870 384 949 q 543 678 543 791 l 543 271 m 407 407 q 368 503 407 463 q 271 542 328 542 l 271 543 q 175 503 215 543 q 136 407 136 463 l 136 272 q 175 176 136 216 q 271 136 215 136 l 271 136 q 367 175 328 136 q 407 271 407 215 l 407 407 z "},"ñ":{"ha":678,"x_min":0,"x_max":543,"o":"m 543 407 l 543 1 l 407 1 l 407 407 q 367 503 407 463 q 271 543 328 543 q 175 503 215 543 q 136 407 136 463 l 136 0 l 0 0 l 0 678 l 136 678 l 136 643 q 271 678 196 678 q 463 599 384 678 q 543 407 543 519 m 136 983 q 271 983 203 1051 q 407 983 339 916 l 407 848 q 271 848 339 780 q 136 848 203 916 l 136 983 z "},"ò":{"ha":678,"x_min":0,"x_max":543,"o":"m 271 543 q 175 503 215 543 q 136 407 136 463 l 136 272 q 175 176 136 216 q 271 136 215 136 l 271 136 q 367 175 328 136 q 407 271 407 215 l 407 406 q 367 502 407 463 q 271 542 328 542 l 271 543 m 271 1 q 79 80 159 1 q 0 271 0 159 l 0 407 q 79 599 0 519 q 271 678 159 678 l 271 677 q 463 598 384 677 q 543 406 543 519 l 543 271 q 463 79 542 158 q 271 0 384 0 l 271 1 m 271 1017 l 339 814 l 203 814 l 136 1017 l 271 1017 z "},"ó":{"ha":678,"x_min":0,"x_max":543,"o":"m 271 543 q 175 503 215 543 q 136 407 136 463 l 136 272 q 175 176 136 216 q 271 136 215 136 l 271 136 q 367 175 328 136 q 407 271 407 215 l 407 406 q 367 502 407 463 q 271 542 328 542 l 271 543 m 271 1 q 79 80 159 1 q 0 271 0 159 l 0 407 q 79 599 0 519 q 271 678 159 678 l 271 677 q 463 598 384 677 q 543 406 543 519 l 543 271 q 463 79 542 158 q 271 0 384 0 l 271 1 m 407 1017 l 339 814 l 203 814 l 271 1017 l 407 1017 z "},"ô":{"ha":678,"x_min":0,"x_max":543,"o":"m 271 543 q 175 503 215 543 q 136 407 136 463 l 136 272 q 175 176 136 216 q 271 136 215 136 l 271 136 q 367 175 328 136 q 407 271 407 215 l 407 406 q 367 502 407 463 q 271 542 328 542 l 271 543 m 271 1 q 79 80 159 1 q 0 271 0 159 l 0 407 q 79 599 0 519 q 271 678 159 678 l 271 677 q 463 598 384 677 q 543 406 543 519 l 543 271 q 463 79 542 158 q 271 0 384 0 l 271 1 m 136 814 l 203 1017 l 339 1017 l 407 814 l 136 814 z "},"õ":{"ha":678,"x_min":0,"x_max":543,"o":"m 271 543 q 175 503 215 543 q 136 407 136 463 l 136 272 q 175 176 136 216 q 271 136 215 136 l 271 136 q 367 175 328 136 q 407 271 407 215 l 407 406 q 367 502 407 463 q 271 542 328 542 l 271 543 m 271 1 q 79 80 159 1 q 0 271 0 159 l 0 407 q 79 599 0 519 q 271 678 159 678 l 271 677 q 463 598 384 677 q 543 406 543 519 l 543 271 q 463 79 542 158 q 271 0 384 0 l 271 1 m 136 983 q 271 983 203 1051 q 407 983 339 916 l 407 848 q 271 848 339 780 q 136 848 203 916 l 136 983 z "},"ö":{"ha":678,"x_min":0,"x_max":543,"o":"m 271 543 q 175 503 215 543 q 136 407 136 463 l 136 272 q 175 176 136 216 q 271 136 215 136 l 271 136 q 367 175 328 136 q 407 271 407 215 l 407 406 q 367 502 407 463 q 271 542 328 542 l 271 543 m 271 1 q 79 80 159 1 q 0 271 0 159 l 0 407 q 79 599 0 519 q 271 678 159 678 l 271 677 q 463 598 384 677 q 543 406 543 519 l 543 271 q 463 79 542 158 q 271 0 384 0 l 271 1 m 203 882 q 183 834 203 854 q 136 814 163 814 q 88 834 108 814 q 68 882 68 854 q 88 929 68 909 q 136 949 108 949 q 183 929 163 949 q 203 882 203 909 m 475 882 q 455 834 475 854 q 407 814 435 814 q 359 834 379 814 q 339 882 339 854 q 359 929 339 909 q 407 949 379 949 q 455 929 435 949 q 475 882 475 909 z "},"÷":{"ha":678,"x_min":0,"x_max":543,"o":"m 543 543 l 543 407 l 0 407 l 0 543 l 543 543 m 339 746 q 319 698 339 718 q 271 678 299 678 q 223 698 243 678 q 203 746 203 718 q 223 794 203 774 q 271 814 243 814 q 319 794 299 814 q 339 746 339 774 m 339 203 q 319 156 339 176 q 271 136 299 136 q 223 156 243 136 q 203 203 203 176 q 223 251 203 231 q 271 271 243 271 q 319 251 299 271 q 339 203 339 231 z "},"ø":{"ha":678,"x_min":0,"x_max":543,"o":"m 376 746 l 361 663 q 463 598 418 644 q 543 406 543 519 l 543 271 q 463 79 542 158 q 271 0 384 0 l 271 1 q 252 1 261 1 l 240 -68 l 172 -68 l 186 14 q 79 80 127 33 q 0 271 0 159 l 0 407 q 79 599 0 519 q 271 678 159 678 l 271 677 q 296 676 284 677 l 308 746 l 376 746 m 271 543 q 175 503 215 543 q 136 407 136 463 l 136 272 q 175 176 136 216 q 209 151 191 160 l 274 542 l 271 542 l 271 543 m 367 175 q 407 271 407 215 l 407 406 q 367 502 407 463 q 338 524 354 515 l 274 136 q 367 175 328 136 z "},"ù":{"ha":679,"x_min":0,"x_max":543,"o":"m 1 272 l 1 677 l 136 677 l 136 271 l 136 271 q 176 176 136 216 q 271 136 215 136 l 271 136 q 367 175 328 136 q 407 271 407 215 l 408 271 l 408 678 l 543 678 l 543 0 l 408 0 l 408 36 q 271 0 347 0 l 271 1 q 79 80 159 1 q 0 272 0 159 l 1 272 m 271 1017 l 339 814 l 203 814 l 136 1017 l 271 1017 z "},"ú":{"ha":679,"x_min":0,"x_max":543,"o":"m 1 272 l 1 677 l 136 677 l 136 271 l 136 271 q 176 176 136 216 q 271 136 215 136 l 271 136 q 367 175 328 136 q 407 271 407 215 l 408 271 l 408 678 l 543 678 l 543 0 l 408 0 l 408 36 q 271 0 347 0 l 271 1 q 79 80 159 1 q 0 272 0 159 l 1 272 m 407 1017 l 339 814 l 203 814 l 271 1017 l 407 1017 z "},"û":{"ha":679,"x_min":0,"x_max":543,"o":"m 1 272 l 1 677 l 136 677 l 136 271 l 136 271 q 176 176 136 216 q 271 136 215 136 l 271 136 q 367 175 328 136 q 407 271 407 215 l 408 271 l 408 678 l 543 678 l 543 0 l 408 0 l 408 36 q 271 0 347 0 l 271 1 q 79 80 159 1 q 0 272 0 159 l 1 272 m 136 814 l 203 1017 l 339 1017 l 407 814 l 136 814 z "},"ü":{"ha":679,"x_min":0,"x_max":543,"o":"m 1 272 l 1 677 l 136 677 l 136 271 l 136 271 q 176 176 136 216 q 271 136 215 136 l 271 136 q 367 175 328 136 q 407 271 407 215 l 408 271 l 408 678 l 543 678 l 543 0 l 408 0 l 408 36 q 271 0 347 0 l 271 1 q 79 80 159 1 q 0 272 0 159 l 1 272 m 203 882 q 183 834 203 854 q 136 814 163 814 q 88 834 108 814 q 68 882 68 854 q 88 929 68 909 q 136 949 108 949 q 183 929 163 949 q 203 882 203 909 m 475 882 q 455 834 475 854 q 407 814 435 814 q 359 834 379 814 q 339 882 339 854 q 359 929 339 909 q 407 949 379 949 q 455 929 435 949 q 475 882 475 909 z "},"ý":{"ha":679,"x_min":0,"x_max":543,"o":"m 271 -136 q 368 -96 328 -136 q 408 0 408 -56 l 407 0 l 407 36 q 272 1 347 1 l 272 0 q 80 79 159 0 q 1 271 1 159 l 0 678 l 136 678 l 136 271 q 176 175 136 215 q 272 136 216 136 l 272 136 q 368 176 328 136 q 407 258 402 210 l 407 678 l 543 678 l 543 407 l 543 407 l 543 271 q 543 252 543 261 l 543 0 l 543 0 q 464 -192 543 -113 q 271 -271 385 -271 l 68 -271 l 68 -136 l 271 -136 m 407 1017 l 339 814 l 203 814 l 271 1017 l 407 1017 z "},"þ":{"ha":678,"x_min":0,"x_max":543,"o":"m 407 272 l 407 407 q 367 503 407 463 q 271 543 328 543 l 136 543 l 136 136 l 271 136 l 271 136 q 367 176 328 136 q 407 272 407 216 m 543 271 q 463 80 543 159 q 271 1 384 1 l 271 0 l 136 0 l 136 -271 l 0 -271 l 0 949 l 136 949 l 136 678 l 271 678 q 463 599 384 678 q 543 407 543 519 l 543 271 z "},"ÿ":{"ha":679,"x_min":0,"x_max":543,"o":"m 271 -136 q 368 -96 328 -136 q 408 0 408 -56 l 407 0 l 407 36 q 272 1 347 1 l 272 0 q 80 79 159 0 q 1 271 1 159 l 0 678 l 136 678 l 136 271 q 176 175 136 215 q 272 136 216 136 l 272 136 q 368 176 328 136 q 407 258 402 210 l 407 678 l 543 678 l 543 407 l 543 407 l 543 271 q 543 252 543 261 l 543 0 l 543 0 q 464 -192 543 -113 q 271 -271 385 -271 l 68 -271 l 68 -136 l 271 -136 m 203 882 q 183 834 203 854 q 136 814 163 814 q 88 834 108 814 q 68 882 68 854 q 88 929 68 909 q 136 949 108 949 q 183 929 163 949 q 203 882 203 909 m 475 882 q 455 834 475 854 q 407 814 435 814 q 359 834 379 814 q 339 882 339 854 q 359 929 339 909 q 407 949 379 949 q 455 929 435 949 q 475 882 475 909 z "},"†":{"ha":543,"x_min":0,"x_max":407,"o":"m 407 746 l 407 610 l 271 610 l 271 0 l 136 0 l 136 610 l 0 610 l 0 746 l 136 746 l 136 949 l 271 949 l 271 746 l 407 746 z "},"‡":{"ha":543,"x_min":0,"x_max":407,"o":"m 407 746 l 407 610 l 271 610 l 271 339 l 407 339 l 407 203 l 271 203 l 271 0 l 136 0 l 136 203 l 0 203 l 0 339 l 136 339 l 136 610 l 0 610 l 0 746 l 136 746 l 136 949 l 271 949 l 271 746 l 407 746 z "},"•":{"ha":407,"x_min":0,"x_max":271,"o":"m 136 339 q 40 379 79 339 q 0 475 0 418 q 40 571 0 531 q 136 610 79 610 q 232 571 192 610 q 271 475 271 531 q 232 379 271 418 q 136 339 192 339 z "},"…":{"ha":882,"x_min":0,"x_max":746,"o":"m 203 102 q 174 30 203 60 q 102 0 144 0 q 30 30 60 0 q 0 102 0 60 q 30 174 0 144 q 102 203 60 203 q 174 174 144 203 q 203 102 203 144 m 475 102 q 445 30 475 60 q 373 0 415 0 q 301 30 330 0 q 271 102 271 60 q 301 174 271 144 q 373 203 330 203 q 445 174 415 203 q 475 102 475 144 m 746 102 q 716 30 746 59 q 644 0 686 0 q 572 30 602 0 q 543 102 543 59 q 572 174 543 144 q 644 203 602 203 q 716 174 686 203 q 746 102 746 144 z "},"‹":{"ha":543,"x_min":0,"x_max":407,"o":"m 407 68 l 0 475 l 407 882 l 407 716 l 172 475 l 407 235 l 407 68 z "},"›":{"ha":543,"x_min":0,"x_max":407,"o":"m 0 235 l 235 475 l 0 716 l 0 882 l 407 475 l 0 68 l 0 235 z "},"™":{"ha":678,"x_min":0,"x_max":543,"o":"m 102 882 l 0 882 l 0 949 l 339 949 l 407 791 l 475 949 l 543 949 l 543 475 l 475 475 l 475 791 l 407 633 l 339 791 l 339 475 l 271 475 l 271 882 l 170 882 l 170 475 l 102 475 l 102 882 z "},"‚":{"ha":448,"x_min":0,"x_max":313,"o":"m 160 321 q 174 309 168 315 q 181 301 178 305 q 136 -136 313 160 q 136 136 203 68 l 132 140 q 102 136 117 136 q 30 165 60 136 q 0 237 0 195 q 30 309 0 279 q 102 339 60 339 q 134 334 119 339 l 136 339 q 160 321 149 330 z "},"„":{"ha":753,"x_min":0,"x_max":618,"o":"m 160 321 q 174 309 168 315 q 181 301 178 305 q 136 -136 313 160 q 136 136 203 68 l 132 140 q 102 136 117 136 q 30 165 60 136 q 0 237 0 195 q 30 309 0 279 q 102 339 60 339 q 134 334 119 339 l 136 339 q 160 321 149 330 m 465 321 q 479 309 473 315 q 486 301 483 305 q 441 -136 618 160 q 441 136 509 68 l 437 140 q 407 136 422 136 q 335 165 365 136 q 305 237 305 195 q 335 309 305 279 q 407 339 365 339 q 439 334 424 339 l 441 339 q 465 321 454 330 z "},"‰":{"ha":949,"x_min":0,"x_max":814,"o":"m 543 949 l 136 0 l 0 0 l 407 949 l 543 949 m 0 814 q 8 761 0 786 q 30 718 16 736 q 62 689 43 700 q 102 678 81 678 q 141 689 123 678 q 174 718 160 700 q 195 761 187 736 q 203 814 203 786 q 195 866 203 842 q 174 909 187 891 q 141 939 160 928 q 102 949 123 949 q 62 939 81 949 q 30 909 43 928 q 8 866 16 891 q 0 814 0 842 m 68 814 q 71 853 68 835 q 78 886 73 872 q 88 907 82 899 q 102 916 94 916 q 115 907 109 916 q 126 886 121 899 q 133 853 130 872 q 136 814 136 835 q 133 774 136 793 q 126 742 130 755 q 115 720 121 728 q 102 712 109 712 q 88 720 94 712 q 78 742 82 728 q 71 774 73 755 q 68 814 68 793 m 339 136 q 347 83 339 108 q 369 40 355 58 q 401 11 382 22 q 441 0 420 0 q 480 11 462 0 q 513 40 499 22 q 534 83 526 58 q 543 136 543 108 q 534 188 543 163 q 513 231 526 213 q 480 260 499 250 q 441 271 462 271 q 401 260 420 271 q 369 231 382 250 q 347 188 355 213 q 339 136 339 163 m 407 136 q 410 175 407 157 q 417 208 412 194 q 427 229 421 221 q 441 237 433 237 q 454 229 448 237 q 465 208 460 221 q 472 175 469 194 q 475 136 475 157 q 472 96 475 115 q 465 64 469 77 q 454 42 460 50 q 441 34 448 34 q 427 42 433 34 q 417 64 421 50 q 410 96 412 77 q 407 136 407 115 m 610 136 q 618 83 610 108 q 640 40 627 58 q 672 11 654 22 q 712 0 691 0 q 752 11 733 0 q 784 40 770 22 q 806 83 798 58 q 814 136 814 108 q 806 188 814 163 q 784 231 798 213 q 752 260 770 250 q 712 271 733 271 q 672 260 691 271 q 640 231 654 250 q 618 188 627 213 q 610 136 610 163 m 678 136 q 681 175 678 157 q 688 208 684 194 q 699 229 692 221 q 712 237 705 237 q 725 229 719 237 q 736 208 732 221 q 743 175 741 194 q 746 136 746 157 q 743 96 746 115 q 736 64 741 77 q 725 42 732 50 q 712 34 719 34 q 699 42 705 34 q 688 64 692 50 q 681 96 684 77 q 678 136 678 115 z "},"Š":{"ha":679,"x_min":0,"x_max":543,"o":"m 271 0 q 79 79 159 0 q 0 271 0 159 l 136 271 q 175 175 136 215 q 271 136 215 136 q 367 175 328 136 q 407 271 407 215 l 408 271 q 368 367 408 328 q 272 407 328 407 q 80 486 159 407 q 1 678 1 566 l 0 678 q 79 870 0 791 q 271 949 159 949 q 463 870 384 949 q 543 678 543 791 l 407 678 q 367 774 407 734 q 271 814 328 814 q 175 774 215 814 q 136 678 136 734 l 136 678 q 176 582 136 622 q 272 543 216 543 q 464 463 385 543 q 543 271 543 384 l 543 271 q 463 79 543 159 q 271 0 384 0 m 407 1289 l 339 1085 l 203 1085 l 136 1289 l 407 1289 z "},"Œ":{"ha":1085,"x_min":0,"x_max":949,"o":"m 949 949 l 949 814 l 543 814 l 543 543 l 813 543 l 813 407 l 543 407 l 543 136 l 949 136 l 949 0 l 407 0 l 407 35 q 271 0 347 0 q 79 79 159 0 q 0 271 0 159 l 0 678 q 79 870 0 791 q 271 949 159 949 q 407 913 347 949 l 407 949 l 949 949 m 407 678 q 367 774 407 734 q 271 814 328 814 q 175 774 215 814 q 136 678 136 734 l 136 271 q 175 175 136 215 q 271 136 215 136 q 367 175 328 136 q 407 265 405 213 l 407 678 z "},"Ž":{"ha":678,"x_min":0,"x_max":543,"o":"m 543 136 l 543 0 l 0 0 l 349 814 l 0 814 l 0 949 l 543 949 l 193 136 l 543 136 m 407 1289 l 339 1085 l 203 1085 l 136 1289 l 407 1289 z "},"’":{"ha":448,"x_min":0,"x_max":313,"o":"m 160 931 q 174 920 168 926 q 181 911 178 916 q 136 475 313 770 q 136 746 203 678 l 132 750 q 102 746 117 746 q 30 776 60 746 q 0 848 0 806 q 30 920 0 890 q 102 949 60 949 q 134 945 119 949 l 136 949 q 160 931 149 941 z "},"‘":{"ha":378,"x_min":-70,"x_max":243,"o":"m 83 770 q 69 781 75 775 q 62 789 65 785 q 107 1226 -70 930 q 107 955 39 1023 l 111 951 q 141 955 125 955 q 213 925 183 955 q 243 853 243 895 q 213 781 243 811 q 141 751 183 751 q 109 756 124 751 l 107 751 q 83 770 94 760 z "},"”":{"ha":753,"x_min":0,"x_max":618,"o":"m 160 931 q 174 920 168 926 q 181 911 178 916 q 136 475 313 770 q 136 746 203 678 l 132 750 q 102 746 117 746 q 30 776 60 746 q 0 848 0 806 q 30 920 0 890 q 102 949 60 949 q 134 945 119 949 l 136 949 q 160 931 149 941 m 465 931 q 479 920 473 926 q 486 911 483 916 q 441 475 618 770 q 441 746 509 678 l 437 750 q 407 746 422 746 q 335 776 365 746 q 305 848 305 806 q 335 920 305 890 q 407 949 365 949 q 439 945 424 949 l 441 949 q 465 931 454 941 z "},"“":{"ha":690,"x_min":-70,"x_max":554,"o":"m 83 770 q 69 781 75 775 q 62 789 65 785 q 107 1226 -70 930 q 107 955 39 1023 l 111 951 q 141 955 125 955 q 213 925 183 955 q 243 853 243 895 q 213 781 243 811 q 141 751 183 751 q 109 756 124 751 l 107 751 q 83 770 94 760 m 394 760 q 380 772 387 766 q 373 780 376 776 q 418 1217 241 921 q 418 945 351 1013 l 422 941 q 452 945 437 945 q 524 916 494 945 q 554 844 554 886 q 524 772 554 802 q 452 742 494 742 q 420 747 435 742 l 418 742 q 394 760 406 751 z "},"–":{"ha":678,"x_min":0,"x_max":543,"o":"m 543 543 l 543 407 l 0 407 l 0 543 l 543 543 z "},"­":{"ha":543,"x_min":0,"x_max":407,"o":"m 407 543 l 407 407 l 0 407 l 0 543 l 407 543 z "},"—":{"ha":746,"x_min":0,"x_max":610,"o":"m 610 543 l 610 407 l 0 407 l 0 543 l 610 543 z "},"˜":{"ha":407,"x_min":0,"x_max":271,"o":"m 0 916 q 136 916 68 983 q 271 916 203 848 l 271 780 q 136 780 203 712 q 0 780 68 848 l 0 916 z "},"š":{"ha":678,"x_min":0,"x_max":543,"o":"m 543 678 l 543 543 l 271 543 q 175 503 215 543 q 136 407 136 463 l 543 407 l 543 271 q 463 79 543 159 q 271 0 384 0 l 0 0 l 0 136 l 271 136 q 367 175 328 136 q 407 271 407 215 l 0 271 l 0 407 q 79 599 0 519 q 271 678 159 678 l 543 678 m 407 1017 l 339 814 l 203 814 l 136 1017 l 407 1017 z "},"œ":{"ha":1085,"x_min":0,"x_max":949,"o":"m 678 136 l 882 136 l 882 0 l 678 0 l 678 1 q 486 80 566 1 q 475 92 480 85 q 463 79 469 85 q 271 0 384 0 l 271 1 q 79 80 159 1 q 0 271 0 159 l 0 407 q 79 599 0 519 q 271 678 159 678 l 271 677 q 463 598 384 677 q 474 586 469 592 q 486 599 480 593 q 678 678 566 678 q 870 599 791 678 q 949 407 949 519 l 949 271 l 543 271 l 543 271 q 583 176 543 215 q 678 136 622 136 l 678 136 m 271 543 q 175 503 215 543 q 136 407 136 463 l 136 272 q 175 176 136 216 q 271 136 215 136 l 271 136 q 367 175 328 136 q 407 271 407 215 l 407 407 l 407 412 q 367 502 405 465 q 271 542 328 542 l 271 543 m 543 407 l 814 407 q 774 503 814 463 q 678 543 734 543 q 582 503 622 543 q 543 412 544 465 l 543 407 z "},"€":{"ha":746,"x_min":0,"x_max":610,"o":"m 0 407 l 68 407 l 68 543 l 0 543 l 0 610 l 68 610 l 68 678 q 147 870 68 791 q 339 949 227 949 q 531 870 452 949 q 610 678 610 791 l 475 678 q 435 774 475 734 q 339 814 395 814 q 243 774 283 814 q 203 678 203 734 l 203 610 l 407 610 l 407 543 l 203 543 l 203 407 l 407 407 l 407 339 l 203 339 l 203 271 q 243 175 203 215 q 339 136 283 136 q 435 175 395 136 q 475 271 475 215 l 610 271 q 531 79 610 159 q 339 0 452 0 q 147 79 227 0 q 68 271 68 159 l 68 339 l 0 339 l 0 407 z "},"ƒ":{"ha":610,"x_min":0,"x_max":475,"o":"m 136 543 l 68 543 l 68 678 l 136 678 q 215 870 136 791 q 407 949 294 949 l 475 949 l 475 814 l 407 814 q 311 774 351 814 q 271 678 271 734 l 407 678 l 407 543 l 271 543 l 271 0 q 192 -192 271 -113 q 0 -271 113 -271 l 0 -136 q 96 -96 56 -136 q 136 0 136 -56 l 136 543 z "},"ž":{"ha":678,"x_min":0,"x_max":543,"o":"m 543 136 l 543 0 l 0 0 l 304 543 l 0 543 l 0 678 l 543 678 l 235 136 l 543 136 m 407 1017 l 339 814 l 203 814 l 136 1017 l 407 1017 z "},"Ÿ":{"ha":678,"x_min":0,"x_max":543,"o":"m 203 475 l 0 949 l 136 949 l 271 633 l 407 949 l 543 949 l 339 475 l 339 0 l 203 0 l 203 475 m 203 1153 q 183 1105 203 1125 q 136 1085 163 1085 q 88 1105 108 1085 q 68 1153 68 1125 q 88 1201 68 1181 q 136 1221 108 1221 q 183 1201 163 1221 q 203 1153 203 1181 m 475 1153 q 455 1105 475 1125 q 407 1085 435 1085 q 359 1105 379 1085 q 339 1153 339 1125 q 359 1201 339 1181 q 407 1221 379 1221 q 455 1201 435 1221 q 475 1153 475 1181 z "},"А":{"ha":678,"x_min":0,"x_max":543,"o":"m 407 407 l 136 407 l 136 1 l 0 1 l 0 678 q 79 870 0 791 q 271 949 159 949 q 463 870 384 949 q 543 678 543 791 l 543 0 l 407 0 l 407 407 m 407 678 q 367 774 407 734 q 271 814 328 814 q 175 774 215 814 q 136 678 136 734 l 136 543 l 407 543 l 407 678 z "},"В":{"ha":678,"x_min":0,"x_max":543,"o":"m 0 949 l 203 949 q 395 870 316 949 q 475 678 475 791 q 412 504 475 578 q 463 463 439 488 q 543 271 543 384 q 463 79 543 159 q 271 0 384 0 l 0 0 l 0 949 m 271 407 l 209 407 l 203 407 l 136 407 l 136 136 l 271 136 q 367 175 328 136 q 407 271 407 215 q 367 367 407 328 q 271 407 328 407 m 203 814 l 136 814 l 136 543 l 203 543 q 299 582 260 543 q 339 678 339 622 q 299 774 339 734 q 203 814 260 814 z "},"Б":{"ha":678,"x_min":0,"x_max":543,"o":"m 475 949 l 475 814 l 136 814 l 136 543 l 271 543 q 463 463 384 543 q 543 271 543 384 q 463 79 543 159 q 271 0 384 0 l 0 0 l 0 949 l 475 949 m 271 407 l 136 407 l 136 136 l 271 136 q 367 175 328 136 q 407 271 407 215 q 367 367 407 328 q 271 407 328 407 z "},"Г":{"ha":678,"x_min":0,"x_max":543,"o":"m 0 949 l 543 949 l 543 814 l 136 814 l 136 0 l 0 0 l 0 949 z "},"Е":{"ha":678,"x_min":0,"x_max":543,"o":"m 543 949 l 543 814 l 136 814 l 136 543 l 406 543 l 406 407 l 136 407 l 136 136 l 543 136 l 543 0 l 0 0 l 0 949 l 543 949 z "},"Д":{"ha":949,"x_min":0,"x_max":814,"o":"m 215 870 q 407 949 294 949 q 599 870 519 949 q 678 678 678 791 l 678 136 l 814 136 l 814 -136 l 678 -136 l 678 0 l 136 0 l 136 -136 l 0 -136 l 0 136 l 136 136 l 136 678 q 215 870 136 791 m 543 678 q 503 774 543 734 q 407 814 463 814 q 311 774 351 814 q 271 678 271 734 l 271 136 l 543 136 l 543 678 z "},"З":{"ha":678,"x_min":0,"x_max":543,"o":"m 271 1 q 79 80 159 1 q 0 272 0 159 l 136 272 q 175 176 136 216 q 271 136 215 136 l 271 136 q 367 175 328 136 q 407 271 407 215 q 367 367 407 328 q 271 407 328 407 l 136 407 l 136 543 l 271 543 q 367 582 328 543 q 407 678 407 622 q 367 774 407 734 q 271 814 328 814 q 175 774 215 814 q 136 678 136 734 l 0 678 q 79 870 0 791 q 271 949 159 949 q 463 870 384 949 q 543 678 543 791 q 463 486 543 566 q 451 475 457 480 q 463 463 457 469 q 543 271 543 384 q 463 79 543 159 q 271 0 384 0 l 271 1 z "},"Ж":{"ha":1085,"x_min":0,"x_max":949,"o":"m 136 949 l 252 543 l 407 543 l 407 949 l 543 949 l 543 543 l 697 543 l 814 949 l 949 949 l 814 475 l 949 0 l 814 0 l 697 407 l 543 407 l 543 0 l 407 0 l 407 407 l 252 407 l 136 0 l 0 0 l 136 475 l 0 949 l 136 949 z "},"И":{"ha":678,"x_min":0,"x_max":543,"o":"m 136 0 l 0 0 l 0 949 l 136 949 l 136 317 l 407 949 l 543 949 l 543 0 l 407 0 l 407 633 l 136 0 z "},"Й":{"ha":678,"x_min":0,"x_max":543,"o":"m 136 0 l 0 0 l 0 949 l 136 949 l 136 317 l 407 949 l 543 949 l 543 0 l 407 0 l 407 633 l 136 0 m 408 1289 l 340 1085 l 204 1085 l 136 1289 l 408 1289 z "},"К":{"ha":678,"x_min":0,"x_max":543,"o":"m 136 475 l 339 950 l 475 950 l 271 475 l 543 0 l 407 0 l 136 475 l 136 0 l 0 0 l 0 949 l 136 949 l 136 475 z "},"Л":{"ha":678,"x_min":0,"x_max":543,"o":"m 0 543 l 0 678 q 79 870 0 791 q 271 949 159 949 q 463 870 384 949 q 543 678 543 791 l 543 0 l 407 0 l 407 678 q 367 774 407 734 q 271 814 328 814 q 175 774 215 814 q 136 678 136 734 l 136 0 l 0 0 l 0 543 z "},"М":{"ha":678,"x_min":0,"x_max":543,"o":"m 543 949 l 543 0 l 407 0 l 407 633 l 271 317 l 136 633 l 136 0 l 0 0 l 0 949 l 136 949 l 271 633 l 407 949 l 543 949 z "},"Н":{"ha":678,"x_min":0,"x_max":543,"o":"m 543 949 l 543 0 l 407 0 l 407 407 l 136 407 l 136 0 l 0 0 l 0 949 l 136 949 l 136 543 l 407 543 l 407 949 l 543 949 z "},"О":{"ha":678,"x_min":0,"x_max":543,"o":"m 543 271 q 463 79 543 159 q 271 0 384 0 q 79 79 159 0 q 0 271 0 159 l 0 678 q 79 870 0 791 q 271 949 159 949 q 463 870 384 949 q 543 678 543 791 l 543 271 m 407 678 q 367 774 407 734 q 271 814 328 814 q 175 774 215 814 q 136 678 136 734 l 136 271 q 175 175 136 215 q 271 136 215 136 q 367 175 328 136 q 407 271 407 215 l 407 678 z "},"П":{"ha":678,"x_min":0,"x_max":543,"o":"m 407 814 l 136 814 l 136 0 l 0 0 l 0 949 l 543 949 l 543 0 l 407 0 l 407 814 z "},"Р":{"ha":678,"x_min":0,"x_max":543,"o":"m 136 949 l 271 949 q 463 870 384 949 q 543 678 543 791 q 463 486 543 566 q 271 407 384 407 l 136 407 l 136 0 l 0 0 l 0 949 l 136 949 m 407 678 q 367 774 407 734 q 271 814 328 814 l 136 814 l 136 543 l 271 543 q 367 582 328 543 q 407 678 407 622 z "},"С":{"ha":678,"x_min":0,"x_max":543,"o":"m 271 136 q 367 175 328 136 q 407 271 407 215 l 543 271 q 463 79 543 159 q 271 0 384 0 q 79 79 159 0 q 0 271 0 159 l 0 678 q 79 870 0 791 q 271 949 159 949 q 463 870 384 949 q 543 678 543 791 l 407 678 q 367 774 407 734 q 271 814 328 814 q 175 774 215 814 q 136 678 136 734 l 136 271 q 175 175 136 215 q 271 136 215 136 z "},"Т":{"ha":678,"x_min":0,"x_max":543,"o":"m 543 949 l 543 814 l 339 814 l 339 0 l 203 0 l 203 814 l 0 814 l 0 949 l 543 949 z "},"У":{"ha":678,"x_min":0,"x_max":543,"o":"m 0 949 l 136 949 l 136 678 q 175 582 136 622 q 271 543 215 543 q 367 582 328 543 q 407 672 405 620 l 407 949 l 543 949 l 543 271 q 463 79 543 159 q 271 0 384 0 q 79 79 159 0 q 0 271 0 159 l 136 271 q 175 175 136 215 q 271 136 215 136 q 367 175 328 136 q 407 271 407 215 l 407 442 q 271 407 347 407 q 79 486 159 407 q 0 678 0 566 l 0 949 z "},"Ф":{"ha":1085,"x_min":0,"x_max":949,"o":"m 271 949 l 678 949 q 870 870 791 949 q 949 678 949 791 q 870 486 949 566 q 678 407 791 407 l 543 407 l 543 0 l 407 0 l 407 407 l 271 407 q 79 486 159 407 q 0 678 0 566 q 79 870 0 791 q 271 949 159 949 m 814 678 q 774 774 814 734 q 678 814 734 814 l 543 814 l 543 543 l 678 543 q 774 582 734 543 q 814 678 814 622 m 136 678 q 175 582 136 622 q 271 543 215 543 l 407 543 l 407 814 l 271 814 q 175 774 215 814 q 136 678 136 734 z "},"Х":{"ha":678,"x_min":0,"x_max":543,"o":"m 136 949 l 271 633 l 407 949 l 543 949 l 339 475 l 543 0 l 407 0 l 271 316 l 136 0 l 0 0 l 203 475 l 0 949 l 136 949 z "},"Ц":{"ha":814,"x_min":0,"x_max":678,"o":"m 543 0 l 0 0 l 0 949 l 136 949 l 136 136 l 407 136 l 407 949 l 543 949 l 543 136 l 678 136 l 678 -136 l 543 -136 l 543 0 z "},"Ч":{"ha":678,"x_min":0,"x_max":543,"o":"m 407 373 l 407 442 q 271 407 347 407 q 79 486 159 407 q 0 678 0 566 l 0 949 l 136 949 l 136 678 q 175 582 136 622 q 271 543 215 543 q 367 582 328 543 q 407 672 405 620 l 407 949 l 543 949 l 543 0 l 407 0 l 407 373 z "},"Ш":{"ha":1085,"x_min":0,"x_max":949,"o":"m 814 949 l 949 949 l 949 0 l 0 0 l 0 949 l 136 949 l 136 136 l 407 136 l 407 949 l 543 949 l 543 136 l 814 136 l 814 949 z "},"Щ":{"ha":1221,"x_min":0,"x_max":1085,"o":"m 949 136 l 1085 136 l 1085 -136 l 949 -136 l 949 0 l 0 0 l 0 949 l 136 949 l 136 136 l 407 136 l 407 949 l 543 949 l 543 136 l 814 136 l 814 949 l 949 949 l 949 136 z "},"Ь":{"ha":678,"x_min":0,"x_max":543,"o":"m 0 0 l 0 949 l 136 949 l 136 543 l 271 543 q 463 463 384 543 q 543 271 543 384 q 463 79 543 159 q 271 0 384 0 l 136 0 l 0 0 m 407 271 q 367 367 407 328 q 271 407 328 407 l 136 407 l 136 136 l 271 136 q 367 175 328 136 q 407 271 407 215 z "},"Ы":{"ha":949,"x_min":0,"x_max":814,"o":"m 0 0 l 0 949 l 136 949 l 136 543 l 271 543 q 463 463 384 543 q 543 271 543 384 q 463 79 543 159 q 271 0 384 0 l 136 0 l 0 0 m 407 271 q 367 367 407 328 q 271 407 328 407 l 136 407 l 136 136 l 271 136 q 367 175 328 136 q 407 271 407 215 m 678 949 l 814 949 l 814 0 l 678 0 l 678 949 z "},"Ъ":{"ha":814,"x_min":0,"x_max":678,"o":"m 0 949 l 271 949 l 271 543 l 407 543 q 599 463 519 543 q 678 271 678 384 q 599 79 678 159 q 407 0 519 0 l 136 0 l 136 814 l 0 814 l 0 949 m 543 271 q 503 367 543 328 q 407 407 463 407 l 271 407 l 271 136 l 407 136 q 503 175 463 136 q 543 271 543 215 z "},"Э":{"ha":678,"x_min":0,"x_max":543,"o":"m 203 543 l 407 543 l 407 678 q 367 774 407 734 q 271 814 328 814 q 175 774 215 814 q 136 678 136 734 l 0 678 q 79 870 0 791 q 271 949 159 949 q 463 870 384 949 q 543 678 543 791 l 543 271 q 463 79 543 159 q 271 0 384 0 q 79 79 159 0 q 0 271 0 159 l 136 271 q 175 175 136 215 q 271 136 215 136 q 367 175 328 136 q 407 271 407 215 l 407 407 l 203 407 l 203 543 z "},"Ю":{"ha":949,"x_min":0,"x_max":814,"o":"m 0 949 l 136 949 l 136 543 l 271 543 l 271 678 q 351 870 271 791 q 543 949 430 949 q 734 870 655 949 q 814 678 814 791 l 814 271 q 734 79 814 159 q 543 0 655 0 q 351 79 430 0 q 271 271 271 159 l 271 407 l 136 407 l 136 0 l 0 0 l 0 949 m 678 678 q 638 774 678 734 q 543 814 599 814 q 447 774 486 814 q 407 678 407 734 l 407 271 q 447 175 407 215 q 543 136 486 136 q 638 175 599 136 q 678 271 678 215 l 678 678 z "},"Я":{"ha":678,"x_min":0,"x_max":543,"o":"m 136 678 q 175 582 136 622 q 271 543 215 543 l 407 543 l 407 814 l 271 814 q 175 774 215 814 q 136 678 136 734 m 543 949 l 543 0 l 407 0 l 407 407 l 288 407 l 136 0 l 0 0 l 161 429 q 79 486 117 449 q 0 678 0 566 q 79 870 0 791 q 271 949 159 949 l 407 949 l 543 949 z "},"а":{"ha":678,"x_min":0,"x_max":543,"o":"m 271 136 l 271 136 q 368 176 328 136 q 407 271 407 216 q 368 368 407 328 q 271 407 328 407 l 271 406 q 175 367 215 406 q 136 271 136 327 q 175 176 136 215 q 271 136 215 136 m 407 36 q 271 1 347 1 l 271 0 q 79 79 159 0 q 0 271 0 159 l 0 271 q 79 463 0 384 q 271 542 159 542 l 271 543 q 403 509 344 543 q 368 571 394 544 q 271 610 328 610 l 68 610 l 68 746 l 271 746 q 463 667 384 746 q 543 475 543 587 l 543 0 l 407 0 l 407 36 z "},"д":{"ha":678,"x_min":0,"x_max":543,"o":"m 543 271 q 463 79 542 158 q 271 0 384 0 l 271 1 q 79 80 159 1 q 0 271 0 159 l 0 407 q 79 599 0 519 q 271 678 159 678 l 271 677 q 407 642 347 677 l 407 678 q 367 774 407 734 q 271 814 328 814 l 68 814 l 68 949 l 271 949 q 463 870 384 949 q 543 678 543 791 l 543 271 m 407 407 q 368 503 407 463 q 271 542 328 542 l 271 543 q 175 503 215 543 q 136 407 136 463 l 136 272 q 175 176 136 216 q 271 136 215 136 l 271 136 q 367 175 328 136 q 407 271 407 215 l 407 407 z "},"б":{"ha":678,"x_min":0,"x_max":543,"o":"m 0 678 q 79 870 0 791 q 271 949 159 949 l 407 949 l 407 814 l 271 814 q 175 774 215 814 q 136 678 136 734 l 136 642 q 271 677 196 677 l 271 678 q 463 599 384 678 q 543 407 543 519 l 543 271 q 463 80 543 159 q 271 1 384 1 l 271 0 q 79 79 159 0 q 0 271 1 158 l 0 678 m 136 271 q 175 175 136 215 q 271 136 215 136 l 271 136 q 367 176 328 136 q 407 272 407 216 l 407 407 q 367 503 407 463 q 271 543 328 543 l 271 542 q 175 503 215 542 q 136 407 136 463 l 136 271 z "},"в":{"ha":678,"x_min":0,"x_max":543,"o":"m 0 678 q 79 870 0 791 q 271 949 159 949 q 477 865 384 949 q 507 779 522 823 q 433 625 496 690 q 463 599 448 613 q 543 407 543 519 l 543 271 q 463 80 543 159 q 271 1 384 1 l 271 0 q 79 79 159 0 q 0 271 1 158 l 0 678 m 136 271 q 175 175 136 215 q 271 136 215 136 l 271 136 q 367 176 328 136 q 407 272 407 216 l 407 407 q 367 503 407 463 q 271 543 328 543 l 271 542 q 175 503 215 542 q 136 407 136 463 l 136 271 m 175 774 q 136 678 136 734 l 136 642 q 237 675 182 669 l 237 678 q 333 718 294 678 q 368 774 358 743 l 367 774 q 271 814 328 814 q 175 774 215 814 z "},"г":{"ha":678,"x_min":0,"x_max":543,"o":"m 0 678 l 543 678 l 543 543 l 136 543 l 136 0 l 0 0 l 0 678 z "},"е":{"ha":678,"x_min":0,"x_max":543,"o":"m 271 136 l 475 136 l 475 0 l 271 0 l 271 1 q 79 80 159 1 q 0 271 0 159 l 0 407 q 79 599 0 519 q 271 678 159 678 q 463 599 384 678 q 543 407 543 519 l 543 271 l 136 271 q 176 176 136 216 q 271 136 215 136 l 271 136 m 136 407 l 407 407 q 367 503 407 463 q 271 543 328 543 q 175 503 215 543 q 136 407 136 463 z "},"ж":{"ha":1085,"x_min":0,"x_max":949,"o":"m 136 678 l 252 407 l 407 407 l 407 678 l 543 678 l 543 407 l 697 407 l 814 678 l 949 678 l 814 339 l 949 0 l 814 0 l 697 271 l 543 271 l 543 0 l 407 0 l 407 271 l 252 271 l 136 0 l 0 0 l 136 339 l 0 678 l 136 678 z "},"з":{"ha":678,"x_min":0,"x_max":543,"o":"m 271 0 q 79 45 159 0 q 0 203 0 91 l 136 203 q 271 136 136 136 l 271 135 q 407 203 407 136 q 271 271 407 271 l 203 271 l 203 406 l 271 406 q 407 475 407 407 q 271 542 407 542 q 136 474 136 543 l 0 474 q 79 632 0 587 q 271 677 159 677 q 463 632 384 677 q 543 474 543 587 q 463 350 543 429 q 451 338 457 344 q 463 327 457 333 q 543 203 543 248 q 463 45 543 90 q 271 -1 384 -1 l 271 0 z "},"и":{"ha":678,"x_min":0,"x_max":543,"o":"m 136 0 l 0 0 l 0 678 l 136 678 l 136 237 l 407 678 l 543 678 l 543 0 l 407 0 l 407 441 l 136 0 z "},"й":{"ha":678,"x_min":0,"x_max":543,"o":"m 136 0 l 0 0 l 0 678 l 136 678 l 136 237 l 407 678 l 543 678 l 543 0 l 407 0 l 407 441 l 136 0 m 407 1017 l 339 814 l 203 814 l 136 1017 l 407 1017 z "},"к":{"ha":678,"x_min":0,"x_max":543,"o":"m 136 339 l 339 678 l 475 678 l 271 339 l 543 0 l 407 0 l 136 339 l 136 0 l 0 0 l 0 678 l 136 678 l 136 339 z "},"л":{"ha":678,"x_min":0,"x_max":543,"o":"m 0 543 l 0 407 q 79 599 0 519 q 271 678 159 678 q 463 599 384 678 q 543 407 543 519 l 543 0 l 407 0 l 407 407 q 367 503 407 463 q 271 543 328 543 q 175 503 215 543 q 136 407 136 463 l 136 0 l 0 0 l 0 543 z "},"м":{"ha":678,"x_min":0,"x_max":543,"o":"m 543 678 l 543 0 l 407 0 l 407 361 l 271 45 l 136 361 l 136 0 l 0 0 l 0 678 l 136 678 l 271 361 l 407 678 l 543 678 z "},"н":{"ha":678,"x_min":0,"x_max":543,"o":"m 543 678 l 543 0 l 407 0 l 407 271 l 136 271 l 136 0 l 0 0 l 0 678 l 136 678 l 136 407 l 407 407 l 407 678 l 543 678 z "},"о":{"ha":678,"x_min":0,"x_max":543,"o":"m 271 543 q 175 503 215 543 q 136 407 136 463 l 136 272 q 175 176 136 216 q 271 136 215 136 l 271 136 q 367 175 328 136 q 407 271 407 215 l 407 406 q 367 502 407 463 q 271 542 328 542 l 271 543 m 271 1 q 79 80 159 1 q 0 271 0 159 l 0 407 q 79 599 0 519 q 271 678 159 678 l 271 677 q 463 598 384 677 q 543 406 543 519 l 543 271 q 463 79 542 158 q 271 0 384 0 l 271 1 z "},"п":{"ha":678,"x_min":0,"x_max":543,"o":"m 407 543 l 136 543 l 136 0 l 0 0 l 0 678 l 543 678 l 543 0 l 407 0 l 407 543 z "},"р":{"ha":678,"x_min":0,"x_max":543,"o":"m 0 678 l 136 678 l 136 642 q 271 678 196 678 l 271 677 q 463 598 384 677 q 543 406 543 519 l 543 271 q 463 79 542 158 q 271 0 384 0 l 271 1 q 136 36 196 1 l 136 -271 l 0 -271 l 0 678 m 271 543 q 175 503 215 543 q 136 407 136 463 l 136 272 q 175 176 136 216 q 271 136 215 136 l 271 136 q 367 175 328 136 q 407 271 407 215 l 407 406 q 367 502 407 463 q 271 542 328 542 l 271 543 z "},"с":{"ha":678,"x_min":0,"x_max":543,"o":"m 0 407 q 79 599 0 519 q 271 678 159 678 q 463 599 384 678 q 543 407 543 519 l 407 407 q 367 503 407 463 q 271 543 328 543 q 175 503 215 543 q 136 407 136 463 l 136 272 q 175 176 136 216 q 271 136 215 136 l 271 136 q 367 175 328 136 q 407 271 407 215 l 543 271 q 463 79 543 159 q 271 0 384 0 l 271 1 q 79 80 159 1 q 0 271 0 159 l 0 407 l 0 407 z "},"т":{"ha":678,"x_min":0,"x_max":543,"o":"m 543 678 l 543 543 l 339 543 l 339 0 l 203 0 l 203 543 l 0 543 l 0 678 l 543 678 z "},"у":{"ha":679,"x_min":0,"x_max":543,"o":"m 271 -136 q 368 -96 328 -136 q 408 0 408 -56 l 407 0 l 407 36 q 272 1 347 1 l 272 0 q 80 79 159 0 q 1 271 1 159 l 0 678 l 136 678 l 136 271 q 176 175 136 215 q 272 136 216 136 l 272 136 q 368 176 328 136 q 407 258 402 210 l 407 678 l 543 678 l 543 407 l 543 407 l 543 271 q 543 252 543 261 l 543 0 l 543 0 q 464 -192 543 -113 q 271 -271 385 -271 l 68 -271 l 68 -136 l 271 -136 z "},"ф":{"ha":1085,"x_min":0,"x_max":949,"o":"m 407 814 l 543 814 l 543 642 q 678 678 603 678 l 678 677 q 870 598 791 677 q 949 406 949 519 l 949 271 q 870 79 949 158 q 678 0 791 0 l 678 1 q 543 36 603 1 l 543 -136 l 407 -136 l 407 35 q 271 0 347 0 l 271 1 q 79 80 159 1 q 0 271 0 159 l 0 407 q 79 599 0 519 q 271 678 159 678 l 271 677 q 407 642 347 677 l 407 814 m 678 543 q 582 503 622 543 q 543 412 544 465 l 543 406 l 543 271 q 582 176 543 215 q 678 136 622 136 l 678 136 q 774 175 734 136 q 814 271 814 215 l 814 406 q 774 502 814 463 q 678 542 734 542 l 678 543 m 271 543 q 175 503 215 543 q 136 407 136 463 l 136 272 q 175 176 136 216 q 271 136 215 136 l 271 136 q 367 175 328 136 q 407 271 407 215 l 407 406 l 407 407 l 407 412 q 367 502 405 465 q 271 542 328 542 l 271 543 z "},"х":{"ha":678,"x_min":0,"x_max":543,"o":"m 161 678 l 271 483 l 381 678 l 543 678 l 351 340 l 543 0 l 385 0 l 271 199 l 158 0 l 0 0 l 191 340 l 0 678 l 161 678 z "},"ц":{"ha":814,"x_min":0,"x_max":678,"o":"m 543 0 l 0 0 l 0 678 l 136 678 l 136 136 l 407 136 l 407 678 l 543 678 l 543 136 l 678 136 l 678 -136 l 543 -136 l 543 0 z "},"ч":{"ha":678,"x_min":0,"x_max":543,"o":"m 407 237 l 407 307 q 271 271 347 271 q 79 351 159 271 q 0 543 0 430 l 0 678 l 136 678 l 136 543 q 175 447 136 486 q 271 407 215 407 q 367 446 328 407 q 407 536 405 484 l 407 678 l 543 678 l 543 0 l 407 0 l 407 237 z "},"ш":{"ha":1085,"x_min":0,"x_max":949,"o":"m 814 678 l 949 678 l 949 0 l 0 0 l 0 678 l 136 678 l 136 136 l 407 136 l 407 678 l 543 678 l 543 136 l 814 136 l 814 678 z "},"щ":{"ha":1221,"x_min":0,"x_max":1085,"o":"m 949 136 l 1085 136 l 1085 -136 l 949 -136 l 949 0 l 0 0 l 0 678 l 136 678 l 136 136 l 407 136 l 407 678 l 543 678 l 543 136 l 814 136 l 814 678 l 949 678 l 949 136 z "},"ъ":{"ha":814,"x_min":0,"x_max":678,"o":"m 0 678 l 136 678 l 271 678 l 271 543 l 407 543 q 599 463 519 543 q 678 271 678 384 q 599 79 678 159 q 407 0 519 0 l 136 0 l 136 543 l 0 543 l 0 678 m 543 271 q 503 367 543 328 q 407 407 463 407 l 271 407 l 271 136 l 407 136 q 503 175 463 136 q 543 271 543 215 z "},"ь":{"ha":678,"x_min":0,"x_max":543,"o":"m 0 0 l 0 678 l 136 678 l 136 543 l 271 543 q 463 463 384 543 q 543 271 543 384 q 463 79 543 159 q 271 0 384 0 l 136 0 l 0 0 m 407 271 q 367 367 407 328 q 271 407 328 407 l 136 407 l 136 136 l 271 136 q 367 175 328 136 q 407 271 407 215 z "},"ы":{"ha":949,"x_min":0,"x_max":814,"o":"m 0 0 l 0 678 l 136 678 l 136 543 l 271 543 q 463 463 384 543 q 543 271 543 384 q 463 79 543 159 q 271 0 384 0 l 136 0 l 0 0 m 407 271 q 367 367 407 328 q 271 407 328 407 l 136 407 l 136 136 l 271 136 q 367 175 328 136 q 407 271 407 215 m 678 678 l 814 678 l 814 0 l 678 0 l 678 678 z "},"ю":{"ha":949,"x_min":0,"x_max":814,"o":"m 0 678 l 136 678 l 136 407 l 271 407 q 351 599 271 519 q 543 678 430 678 l 543 677 q 734 598 655 677 q 814 406 814 519 l 814 271 q 734 79 813 158 q 543 0 655 0 l 543 1 q 351 80 430 1 q 271 271 271 159 l 136 271 l 136 0 l 0 0 l 0 678 m 543 543 q 447 503 486 543 q 407 407 407 463 l 407 272 q 447 176 407 216 q 543 136 486 136 l 543 136 q 638 175 599 136 q 678 271 678 215 l 678 406 q 638 502 678 463 q 543 542 599 542 l 543 543 z "},"э":{"ha":678,"x_min":0,"x_max":543,"o":"m 203 407 l 407 407 q 367 503 407 463 q 271 543 328 543 q 175 503 215 543 q 136 407 136 463 l 0 407 q 79 599 0 519 q 271 678 159 678 q 463 599 384 678 q 543 407 543 519 l 543 271 q 463 80 543 159 q 271 1 384 1 l 271 0 q 79 79 159 0 q 0 271 0 159 l 136 271 q 175 175 136 215 q 271 136 215 136 l 271 136 q 367 176 328 136 q 407 271 406 215 l 203 271 l 203 407 z "},"я":{"ha":678,"x_min":0,"x_max":543,"o":"m 140 168 q 79 215 108 186 q 0 407 0 294 q 79 599 0 519 q 271 678 159 678 l 543 678 l 543 0 l 407 0 l 407 136 l 282 136 l 170 0 l 0 0 l 140 168 m 136 407 q 175 311 136 351 q 271 271 215 271 l 407 271 l 407 543 l 271 543 q 175 503 215 543 q 136 407 136 463 z "},"Ё":{"ha":678,"x_min":0,"x_max":543,"o":"m 543 949 l 543 814 l 136 814 l 136 543 l 406 543 l 406 407 l 136 407 l 136 136 l 543 136 l 543 0 l 0 0 l 0 949 l 543 949 m 203 1153 q 183 1105 203 1125 q 136 1085 163 1085 q 88 1105 108 1085 q 68 1153 68 1125 q 88 1201 68 1181 q 136 1221 108 1221 q 183 1201 163 1221 q 203 1153 203 1181 m 475 1153 q 455 1105 475 1125 q 407 1085 435 1085 q 359 1105 379 1085 q 339 1153 339 1125 q 359 1201 339 1181 q 407 1221 379 1221 q 455 1201 435 1221 q 475 1153 475 1181 z "},"Є":{"ha":678,"x_min":0,"x_max":543,"o":"m 339 407 l 136 407 l 136 271 q 175 175 136 215 q 271 136 215 136 q 367 175 328 136 q 407 271 407 215 l 543 271 q 463 79 543 159 q 271 0 384 0 q 79 79 159 0 q 0 271 0 159 l 0 678 q 79 870 0 791 q 271 949 159 949 q 463 870 384 949 q 543 678 543 791 l 407 678 q 367 774 407 734 q 271 814 328 814 q 175 774 215 814 q 136 678 136 734 l 136 543 l 339 543 l 339 407 z "},"Ѕ":{"ha":679,"x_min":0,"x_max":543,"o":"m 271 0 q 79 79 159 0 q 0 271 0 159 l 136 271 q 175 175 136 215 q 271 136 215 136 q 367 175 328 136 q 407 271 407 215 l 408 271 q 368 367 408 328 q 272 407 328 407 q 80 486 159 407 q 1 678 1 566 l 0 678 q 79 870 0 791 q 271 949 159 949 q 463 870 384 949 q 543 678 543 791 l 407 678 q 367 774 407 734 q 271 814 328 814 q 175 774 215 814 q 136 678 136 734 l 136 678 q 176 582 136 622 q 272 543 216 543 q 464 463 385 543 q 543 271 543 384 l 543 271 q 463 79 543 159 q 271 0 384 0 z "},"ѕ":{"ha":678,"x_min":0,"x_max":543,"o":"m 543 678 l 543 543 l 271 543 q 175 503 215 543 q 136 407 136 463 l 543 407 l 543 271 q 463 79 543 159 q 271 0 384 0 l 0 0 l 0 136 l 271 136 q 367 175 328 136 q 407 271 407 215 l 0 271 l 0 407 q 79 599 0 519 q 271 678 159 678 l 543 678 z "},"ї":{"ha":543,"x_min":0,"x_max":407,"o":"m 271 678 l 271 0 l 136 0 l 136 678 l 271 678 m 136 882 q 116 834 136 854 q 68 814 96 814 q 20 834 40 814 q 0 882 0 854 q 20 929 0 909 q 68 949 40 949 q 116 929 96 949 q 136 882 136 909 m 407 882 q 387 834 407 854 q 339 814 367 814 q 291 834 311 814 q 271 882 271 854 q 291 929 271 909 q 339 949 311 949 q 387 929 367 949 q 407 882 407 909 z "},"ј":{"ha":407,"x_min":0,"x_max":271,"o":"m 271 0 q 192 -192 271 -113 q 0 -271 113 -271 l 0 -136 q 96 -96 56 -136 q 136 0 136 -56 l 136 678 l 271 678 l 271 0 m 271 949 l 271 814 l 136 814 l 136 949 l 271 949 z "},"є":{"ha":678,"x_min":0,"x_max":543,"o":"m 339 271 l 136 271 q 176 176 136 215 q 271 136 215 136 l 271 136 q 367 175 328 136 q 407 271 407 215 l 543 271 q 463 79 543 159 q 271 0 384 0 l 271 1 q 79 80 159 1 q 0 271 0 159 l 0 407 q 79 599 0 519 q 271 678 159 678 q 463 599 384 678 q 543 407 543 519 l 407 407 q 367 503 407 463 q 271 543 328 543 q 175 503 215 543 q 136 407 136 463 l 339 407 l 339 271 z "},"І":{"ha":271,"x_min":0,"x_max":136,"o":"m 136 949 l 136 0 l 0 0 l 0 949 l 136 949 z "},"і":{"ha":271,"x_min":0,"x_max":136,"o":"m 136 678 l 136 0 l 0 0 l 0 678 l 136 678 m 136 949 l 136 814 l 0 814 l 0 949 l 136 949 z "},"Ї":{"ha":543,"x_min":0,"x_max":407,"o":"m 271 949 l 271 0 l 136 0 l 136 949 l 271 949 m 136 1153 q 116 1105 136 1125 q 68 1085 96 1085 q 20 1105 40 1085 q 0 1153 0 1125 q 20 1201 0 1181 q 68 1221 40 1221 q 116 1201 96 1221 q 136 1153 136 1181 m 407 1153 q 387 1105 407 1125 q 339 1085 367 1085 q 291 1105 311 1085 q 271 1153 271 1125 q 291 1201 271 1181 q 339 1221 311 1221 q 387 1201 367 1221 q 407 1153 407 1181 z "},"Ґ":{"ha":678,"x_min":0,"x_max":543,"o":"m 136 0 l 0 0 l 0 949 l 407 949 l 407 1085 l 543 1085 l 543 814 l 136 814 l 136 0 z "},"ґ":{"ha":678,"x_min":0,"x_max":543,"o":"m 136 0 l 0 0 l 0 678 l 407 678 l 407 814 l 543 814 l 543 543 l 136 543 l 136 0 z "},"ё":{"ha":678,"x_min":0,"x_max":543,"o":"m 271 136 l 475 136 l 475 0 l 271 0 l 271 1 q 79 80 159 1 q 0 271 0 159 l 0 407 q 79 599 0 519 q 271 678 159 678 q 463 599 384 678 q 543 407 543 519 l 543 271 l 136 271 q 176 176 136 216 q 271 136 215 136 l 271 136 m 136 407 l 407 407 q 367 503 407 463 q 271 543 328 543 q 175 503 215 543 q 136 407 136 463 m 203 882 q 183 834 203 854 q 136 814 163 814 q 88 834 108 814 q 68 882 68 854 q 88 929 68 909 q 136 949 108 949 q 183 929 163 949 q 203 882 203 909 m 475 882 q 455 834 475 854 q 407 814 435 814 q 359 834 379 814 q 339 882 339 854 q 359 929 339 909 q 407 949 379 949 q 455 929 435 949 q 475 882 475 909 z "},"Ѓ":{"ha":678,"x_min":0,"x_max":543,"o":"m 0 0 l 136 0 l 136 814 l 543 814 l 543 949 l 0 949 l 0 0 m 407 1289 l 339 1085 l 203 1085 l 271 1289 l 407 1289 z "},"ѓ":{"ha":678,"x_min":0,"x_max":543,"o":"m 0 0 l 136 0 l 136 543 l 543 543 l 543 678 l 0 678 l 0 0 m 407 1017 l 339 814 l 203 814 l 271 1017 l 407 1017 z "},"Ј":{"ha":678,"x_min":0,"x_max":543,"o":"m 407 271 l 407 949 l 543 949 l 543 271 q 463 79 543 159 q 271 0 384 0 q 79 79 159 0 q 0 271 0 159 l 136 271 q 175 175 136 215 q 271 136 215 136 q 367 175 328 136 q 407 271 406 214 z "},"Ў":{"ha":678,"x_min":0,"x_max":543,"o":"m 203 475 l 0 949 l 136 949 l 271 633 l 407 949 l 543 949 l 339 475 l 339 0 l 203 0 l 203 475 m 408 1289 l 340 1085 l 204 1085 l 136 1289 l 408 1289 z "},"ў":{"ha":679,"x_min":0,"x_max":543,"o":"m 271 -136 q 368 -96 328 -136 q 408 0 408 -56 l 407 0 l 407 36 q 272 1 347 1 l 272 0 q 80 79 159 0 q 1 271 1 159 l 0 678 l 136 678 l 136 271 q 176 175 136 215 q 272 136 216 136 l 272 136 q 368 176 328 136 q 407 258 402 210 l 407 678 l 543 678 l 543 407 l 543 407 l 543 271 q 543 252 543 261 l 543 0 l 543 0 q 464 -192 543 -113 q 271 -271 385 -271 l 68 -271 l 68 -136 l 271 -136 m 407 1017 l 339 814 l 203 814 l 136 1017 l 407 1017 z "},"Џ":{"ha":678,"x_min":0,"x_max":543,"o":"m 203 0 l 0 0 l 0 949 l 136 949 l 136 136 l 407 136 l 407 949 l 543 949 l 543 0 l 339 0 l 339 -136 l 203 -136 l 203 0 z "},"џ":{"ha":678,"x_min":0,"x_max":543,"o":"m 203 0 l 0 0 l 0 678 l 136 678 l 136 136 l 407 136 l 407 678 l 543 678 l 543 0 l 339 0 l 339 -136 l 203 -136 l 203 0 z "},"Њ":{"ha":1085,"x_min":0,"x_max":949,"o":"m 407 407 l 136 407 l 136 0 l 0 0 l 0 949 l 136 949 l 136 543 l 407 543 l 407 949 l 543 949 l 543 543 l 678 543 q 870 463 791 543 q 949 271 949 384 q 870 79 949 159 q 678 0 791 0 l 407 0 l 407 407 m 814 271 q 774 367 814 328 q 678 407 734 407 l 543 407 l 543 136 l 678 136 q 774 175 734 136 q 814 271 814 215 z "},"Љ":{"ha":1085,"x_min":0,"x_max":949,"o":"m 0 678 q 79 870 0 791 q 271 949 159 949 q 407 913 347 949 l 407 949 l 543 949 l 543 684 l 543 678 l 543 543 l 678 543 q 870 463 791 543 q 949 271 949 384 q 870 79 949 159 q 678 0 791 0 l 407 0 l 407 678 q 367 774 407 734 q 271 814 328 814 q 175 774 215 814 q 136 678 136 734 l 136 0 l 0 0 l 0 678 m 814 271 q 774 367 814 328 q 678 407 734 407 l 543 407 l 543 136 l 678 136 q 774 175 734 136 q 814 271 814 215 z "},"Ќ":{"ha":678,"x_min":0,"x_max":543,"o":"m 136 475 l 339 950 l 475 950 l 271 475 l 543 0 l 407 0 l 136 475 l 136 0 l 0 0 l 0 949 l 136 949 l 136 475 m 407 1289 l 339 1085 l 203 1085 l 271 1289 l 407 1289 z "},"ќ":{"ha":678,"x_min":0,"x_max":543,"o":"m 136 339 l 339 678 l 475 678 l 271 339 l 543 0 l 407 0 l 136 339 l 136 0 l 0 0 l 0 678 l 136 678 l 136 339 m 407 1017 l 339 814 l 203 814 l 271 1017 l 407 1017 z "},"љ":{"ha":1085,"x_min":0,"x_max":949,"o":"m 407 407 q 367 503 407 463 q 271 543 328 543 q 175 503 215 543 q 136 407 136 463 l 136 0 l 0 0 l 0 407 q 79 599 0 519 q 271 678 159 678 q 407 642 347 678 l 407 678 l 543 678 l 543 543 l 678 543 q 870 463 791 543 q 949 271 949 384 q 870 79 949 159 q 678 0 791 0 l 407 0 l 407 407 m 814 271 q 774 367 814 328 q 678 407 734 407 l 543 407 l 543 136 l 678 136 q 774 175 734 136 q 814 271 814 215 z "},"њ":{"ha":1085,"x_min":0,"x_max":949,"o":"m 407 271 l 136 271 l 136 0 l 0 0 l 0 678 l 136 678 l 136 407 l 407 407 l 407 678 l 543 678 l 543 543 l 678 543 q 870 463 791 543 q 949 271 949 384 q 870 79 949 159 q 678 0 791 0 l 407 0 l 407 271 m 814 271 q 774 367 814 328 q 678 407 734 407 l 543 407 l 543 136 l 678 136 q 774 175 734 136 q 814 271 814 215 z "},"Ћ":{"ha":814,"x_min":0,"x_max":678,"o":"m 0 949 l 475 949 l 475 814 l 271 814 l 271 642 q 407 678 332 678 q 599 599 519 678 q 678 406 678 519 l 678 0 l 543 0 l 543 406 q 503 503 543 463 q 407 543 463 543 q 311 503 351 543 q 271 407 271 463 l 271 0 l 136 0 l 136 814 l 0 814 l 0 949 z "},"Ђ":{"ha":814,"x_min":0,"x_max":678,"o":"m 0 949 l 475 949 l 475 814 l 271 814 l 271 678 l 407 678 q 599 599 519 678 q 678 407 678 519 l 678 272 q 599 80 678 159 q 407 1 519 1 l 407 136 q 503 176 463 136 q 543 272 543 216 l 543 407 q 503 503 543 463 q 407 543 463 543 l 271 543 l 271 0 l 136 0 l 136 814 l 0 814 l 0 949 z "},"ђ":{"ha":814,"x_min":0,"x_max":678,"o":"m 543 407 q 503 503 543 463 q 407 543 463 543 l 271 543 l 271 0 l 136 0 l 136 746 l 0 746 l 0 882 l 136 882 l 136 949 l 271 949 l 271 882 l 475 882 l 475 746 l 271 746 l 271 678 l 407 678 q 599 599 519 678 q 678 407 678 519 l 678 136 q 599 -56 678 23 q 407 -136 519 -136 l 407 0 q 503 40 463 0 q 543 136 543 79 l 543 407 z "},"№":{"ha":1356,"x_min":0,"x_max":1221,"o":"m 136 633 l 136 0 l 0 0 l 0 949 l 136 949 l 407 317 l 407 949 l 543 949 l 543 0 l 407 0 l 136 633 m 949 949 l 949 949 q 1141 870 1062 949 q 1221 679 1221 791 l 1221 678 q 1141 487 1221 566 q 949 408 1062 408 l 949 407 q 758 486 837 407 q 678 677 679 565 l 678 678 q 758 869 679 790 q 949 949 837 949 m 949 543 l 949 543 q 1046 583 1006 543 q 1085 678 1085 623 q 1046 774 1085 734 q 949 814 1006 814 l 949 813 q 854 773 893 813 q 814 677 814 734 q 854 582 814 621 q 949 543 893 543 m 678 102 l 1221 102 l 1221 271 l 678 271 l 678 102 z "},"ћ":{"ha":814,"x_min":0,"x_max":678,"o":"m 0 882 l 136 882 l 136 949 l 271 949 l 271 882 l 475 882 l 475 746 l 271 746 l 271 642 q 407 678 332 678 q 599 599 519 678 q 678 406 678 519 l 678 0 l 543 0 l 543 406 q 503 503 543 463 q 407 543 463 543 q 311 503 351 543 q 271 407 271 463 l 271 0 l 136 0 l 136 746 l 0 746 l 0 882 z "},"ˆ":{"ha":678,"x_min":0,"x_max":543,"o":"m 0 543 l 271 949 l 543 543 l 407 543 l 271 746 l 136 543 l 0 543 z "}," ":{"ha":407,"x_min":0,"x_max":0,"o":""},"!":{"ha":339,"x_min":0,"x_max":203,"o":"m 32 339 l 32 949 l 168 949 l 168 339 l 32 339 m 203 102 q 174 30 203 60 q 102 0 144 0 q 30 30 60 0 q 0 102 0 60 q 30 174 0 144 q 102 203 60 203 q 174 174 144 203 q 203 102 203 144 z "}}}
